solid 
	facet normal 0.0000000e+00 2.3931582e-01 -9.7094184e-01
		outer loop
			vertex 0.0000000e+00 5.2564430e+00 1.1416730e+01
			vertex 0.0000000e+00 6.0000000e+00 1.1600000e+01
			vertex 2.0000000e+00 6.0000000e+00 1.1600000e+01
		endloop 
	endfacet 
	facet normal 0.0000000e+00 6.6312301e-01 -7.4851042e-01
		outer loop
			vertex 0.0000000e+00 4.6832256e+00 1.0908903e+01
			vertex 0.0000000e+00 5.2564430e+00 1.1416730e+01
			vertex 2.0000000e+00 5.2564430e+00 1.1416730e+01
		endloop 
	endfacet 
	facet normal 0.0000000e+00 9.3501633e-01 -3.5460478e-01
		outer loop
			vertex 0.0000000e+00 4.4116659e+00 1.0192859e+01
			vertex 0.0000000e+00 4.6832256e+00 1.0908903e+01
			vertex 2.0000000e+00 4.6832256e+00 1.0908903e+01
		endloop 
	endfacet 
	facet normal 0.0000000e+00 9.9270892e-01 1.2053651e-01
		outer loop
			vertex 0.0000000e+00 4.5039740e+00 9.4326324e+00
			vertex 0.0000000e+00 4.4116659e+00 1.0192859e+01
			vertex 2.0000000e+00 4.4116659e+00 1.0192859e+01
		endloop 
	endfacet 
	facet normal 0.0000000e+00 8.2298392e-01 5.6806457e-01
		outer loop
			vertex 0.0000000e+00 4.9390039e+00 8.8023825e+00
			vertex 0.0000000e+00 4.5039740e+00 9.4326324e+00
			vertex 2.0000000e+00 4.5039740e+00 9.4326324e+00
		endloop 
	endfacet 
	facet normal 0.0000000e+00 4.6472284e-01 8.8545620e-01
		outer loop
			vertex 0.0000000e+00 5.6170950e+00 8.4464931e+00
			vertex 0.0000000e+00 4.9390039e+00 8.8023825e+00
			vertex 2.0000000e+00 4.9390039e+00 8.8023825e+00
		endloop 
	endfacet 
	facet normal 0.0000000e+00 0.0000000e+00 1.0000000e+00
		outer loop
			vertex 0.0000000e+00 6.3829050e+00 8.4464931e+00
			vertex 0.0000000e+00 5.6170950e+00 8.4464931e+00
			vertex 2.0000000e+00 5.6170950e+00 8.4464931e+00
		endloop 
	endfacet 
	facet normal 0.0000000e+00 -4.6472284e-01 8.8545620e-01
		outer loop
			vertex 0.0000000e+00 7.0609961e+00 8.8023825e+00
			vertex 0.0000000e+00 6.3829050e+00 8.4464931e+00
			vertex 2.0000000e+00 6.3829050e+00 8.4464931e+00
		endloop 
	endfacet 
	facet normal 0.0000000e+00 -8.2298392e-01 5.6806457e-01
		outer loop
			vertex 0.0000000e+00 7.4960260e+00 9.4326324e+00
			vertex 0.0000000e+00 7.0609961e+00 8.8023825e+00
			vertex 2.0000000e+00 7.0609961e+00 8.8023825e+00
		endloop 
	endfacet 
	facet normal 0.0000000e+00 -9.9270892e-01 1.2053651e-01
		outer loop
			vertex 0.0000000e+00 7.5883341e+00 1.0192859e+01
			vertex 0.0000000e+00 7.4960260e+00 9.4326324e+00
			vertex 2.0000000e+00 7.4960260e+00 9.4326324e+00
		endloop 
	endfacet 
	facet normal 0.0000000e+00 -9.3501633e-01 -3.5460478e-01
		outer loop
			vertex 0.0000000e+00 7.3167744e+00 1.0908903e+01
			vertex 0.0000000e+00 7.5883341e+00 1.0192859e+01
			vertex 2.0000000e+00 7.5883341e+00 1.0192859e+01
		endloop 
	endfacet 
	facet normal 0.0000000e+00 -6.6312301e-01 -7.4851042e-01
		outer loop
			vertex 0.0000000e+00 6.7435570e+00 1.1416730e+01
			vertex 0.0000000e+00 7.3167744e+00 1.0908903e+01
			vertex 2.0000000e+00 7.3167744e+00 1.0908903e+01
		endloop 
	endfacet 
	facet normal 0.0000000e+00 -2.3931582e-01 -9.7094184e-01
		outer loop
			vertex 0.0000000e+00 6.0000000e+00 1.1600000e+01
			vertex 0.0000000e+00 6.7435570e+00 1.1416730e+01
			vertex 2.0000000e+00 6.7435570e+00 1.1416730e+01
		endloop 
	endfacet 
	facet normal 0.0000000e+00 -2.3931582e-01 -9.7094184e-01
		outer loop
			vertex 2.0000000e+00 6.7435570e+00 1.1416730e+01
			vertex 2.0000000e+00 6.0000000e+00 1.1600000e+01
			vertex 0.0000000e+00 6.0000000e+00 1.1600000e+01
		endloop 
	endfacet 
	facet normal 0.0000000e+00 -6.6312301e-01 -7.4851042e-01
		outer loop
			vertex 2.0000000e+00 7.3167744e+00 1.0908903e+01
			vertex 2.0000000e+00 6.7435570e+00 1.1416730e+01
			vertex 0.0000000e+00 6.7435570e+00 1.1416730e+01
		endloop 
	endfacet 
	facet normal 0.0000000e+00 -9.3501633e-01 -3.5460478e-01
		outer loop
			vertex 2.0000000e+00 7.5883341e+00 1.0192859e+01
			vertex 2.0000000e+00 7.3167744e+00 1.0908903e+01
			vertex 0.0000000e+00 7.3167744e+00 1.0908903e+01
		endloop 
	endfacet 
	facet normal 0.0000000e+00 -9.9270892e-01 1.2053651e-01
		outer loop
			vertex 2.0000000e+00 7.4960260e+00 9.4326324e+00
			vertex 2.0000000e+00 7.5883341e+00 1.0192859e+01
			vertex 0.0000000e+00 7.5883341e+00 1.0192859e+01
		endloop 
	endfacet 
	facet normal 0.0000000e+00 -8.2298392e-01 5.6806457e-01
		outer loop
			vertex 2.0000000e+00 7.0609961e+00 8.8023825e+00
			vertex 2.0000000e+00 7.4960260e+00 9.4326324e+00
			vertex 0.0000000e+00 7.4960260e+00 9.4326324e+00
		endloop 
	endfacet 
	facet normal 0.0000000e+00 -4.6472284e-01 8.8545620e-01
		outer loop
			vertex 2.0000000e+00 6.3829050e+00 8.4464931e+00
			vertex 2.0000000e+00 7.0609961e+00 8.8023825e+00
			vertex 0.0000000e+00 7.0609961e+00 8.8023825e+00
		endloop 
	endfacet 
	facet normal 0.0000000e+00 -0.0000000e+00 1.0000000e+00
		outer loop
			vertex 2.0000000e+00 5.6170950e+00 8.4464931e+00
			vertex 2.0000000e+00 6.3829050e+00 8.4464931e+00
			vertex 0.0000000e+00 6.3829050e+00 8.4464931e+00
		endloop 
	endfacet 
	facet normal 0.0000000e+00 4.6472284e-01 8.8545620e-01
		outer loop
			vertex 2.0000000e+00 4.9390039e+00 8.8023825e+00
			vertex 2.0000000e+00 5.6170950e+00 8.4464931e+00
			vertex 0.0000000e+00 5.6170950e+00 8.4464931e+00
		endloop 
	endfacet 
	facet normal 0.0000000e+00 8.2298392e-01 5.6806457e-01
		outer loop
			vertex 2.0000000e+00 4.5039740e+00 9.4326324e+00
			vertex 2.0000000e+00 4.9390039e+00 8.8023825e+00
			vertex 0.0000000e+00 4.9390039e+00 8.8023825e+00
		endloop 
	endfacet 
	facet normal 0.0000000e+00 9.9270892e-01 1.2053651e-01
		outer loop
			vertex 2.0000000e+00 4.4116659e+00 1.0192859e+01
			vertex 2.0000000e+00 4.5039740e+00 9.4326324e+00
			vertex 0.0000000e+00 4.5039740e+00 9.4326324e+00
		endloop 
	endfacet 
	facet normal 0.0000000e+00 9.3501633e-01 -3.5460478e-01
		outer loop
			vertex 2.0000000e+00 4.6832256e+00 1.0908903e+01
			vertex 2.0000000e+00 4.4116659e+00 1.0192859e+01
			vertex 0.0000000e+00 4.4116659e+00 1.0192859e+01
		endloop 
	endfacet 
	facet normal 0.0000000e+00 6.6312301e-01 -7.4851042e-01
		outer loop
			vertex 2.0000000e+00 5.2564430e+00 1.1416730e+01
			vertex 2.0000000e+00 4.6832256e+00 1.0908903e+01
			vertex 0.0000000e+00 4.6832256e+00 1.0908903e+01
		endloop 
	endfacet 
	facet normal 0.0000000e+00 2.3931582e-01 -9.7094184e-01
		outer loop
			vertex 2.0000000e+00 6.0000000e+00 1.1600000e+01
			vertex 2.0000000e+00 5.2564430e+00 1.1416730e+01
			vertex 0.0000000e+00 5.2564430e+00 1.1416730e+01
		endloop 
	endfacet 
	facet normal 1.0000000e+00 0.0000000e+00 0.0000000e+00
		outer loop
			vertex 2.0000000e+00 1.0000000e+01 1.6000000e+01
			vertex 2.0000000e+00 2.0000000e+00 1.6000000e+01
			vertex 2.0000000e+00 6.0000000e+00 1.1600000e+01
		endloop 
	endfacet 
	facet normal 1.0000000e+00 0.0000000e+00 0.0000000e+00
		outer loop
			vertex 2.0000000e+00 2.0000000e+00 1.6000000e+01
			vertex 2.0000000e+00 5.2564430e+00 1.1416730e+01
			vertex 2.0000000e+00 6.0000000e+00 1.1600000e+01
		endloop 
	endfacet 
	facet normal 1.0000000e+00 0.0000000e+00 0.0000000e+00
		outer loop
			vertex 2.0000000e+00 2.0000000e+00 4.0000000e+00
			vertex 2.0000000e+00 4.5039740e+00 9.4326324e+00
			vertex 2.0000000e+00 4.4116659e+00 1.0192859e+01
		endloop 
	endfacet 
	facet normal 1.0000000e+00 0.0000000e+00 0.0000000e+00
		outer loop
			vertex 2.0000000e+00 2.0000000e+00 4.0000000e+00
			vertex 2.0000000e+00 1.0000000e+01 4.0000000e+00
			vertex 2.0000000e+00 6.3829050e+00 8.4464931e+00
		endloop 
	endfacet 
	facet normal 1.0000000e+00 0.0000000e+00 -0.0000000e+00
		outer loop
			vertex 2.0000000e+00 1.0000000e+01 4.0000000e+00
			vertex 2.0000000e+00 1.0000000e+01 1.6000000e+01
			vertex 2.0000000e+00 7.5883341e+00 1.0192859e+01
		endloop 
	endfacet 
	facet normal 1.0000000e+00 0.0000000e+00 0.0000000e+00
		outer loop
			vertex 2.0000000e+00 1.0000000e+01 1.6000000e+01
			vertex 2.0000000e+00 6.7435570e+00 1.1416730e+01
			vertex 2.0000000e+00 7.3167744e+00 1.0908903e+01
		endloop 
	endfacet 
	facet normal 1.0000000e+00 0.0000000e+00 0.0000000e+00
		outer loop
			vertex 2.0000000e+00 2.0000000e+00 1.6000000e+01
			vertex 2.0000000e+00 4.6832256e+00 1.0908903e+01
			vertex 2.0000000e+00 5.2564430e+00 1.1416730e+01
		endloop 
	endfacet 
	facet normal 1.0000000e+00 0.0000000e+00 0.0000000e+00
		outer loop
			vertex 2.0000000e+00 4.4116659e+00 1.0192859e+01
			vertex 2.0000000e+00 2.0000000e+00 1.6000000e+01
			vertex 2.0000000e+00 2.0000000e+00 4.0000000e+00
		endloop 
	endfacet 
	facet normal 1.0000000e+00 0.0000000e+00 0.0000000e+00
		outer loop
			vertex 2.0000000e+00 6.3829050e+00 8.4464931e+00
			vertex 2.0000000e+00 5.6170950e+00 8.4464931e+00
			vertex 2.0000000e+00 2.0000000e+00 4.0000000e+00
		endloop 
	endfacet 
	facet normal 1.0000000e+00 0.0000000e+00 0.0000000e+00
		outer loop
			vertex 2.0000000e+00 1.0000000e+01 4.0000000e+00
			vertex 2.0000000e+00 7.4960260e+00 9.4326324e+00
			vertex 2.0000000e+00 7.0609961e+00 8.8023825e+00
		endloop 
	endfacet 
	facet normal 1.0000000e+00 -0.0000000e+00 0.0000000e+00
		outer loop
			vertex 2.0000000e+00 7.3167744e+00 1.0908903e+01
			vertex 2.0000000e+00 7.5883341e+00 1.0192859e+01
			vertex 2.0000000e+00 1.0000000e+01 1.6000000e+01
		endloop 
	endfacet 
	facet normal 1.0000000e+00 0.0000000e+00 -0.0000000e+00
		outer loop
			vertex 2.0000000e+00 4.4116659e+00 1.0192859e+01
			vertex 2.0000000e+00 4.6832256e+00 1.0908903e+01
			vertex 2.0000000e+00 2.0000000e+00 1.6000000e+01
		endloop 
	endfacet 
	facet normal 1.0000000e+00 0.0000000e+00 0.0000000e+00
		outer loop
			vertex 2.0000000e+00 5.6170950e+00 8.4464931e+00
			vertex 2.0000000e+00 4.9390039e+00 8.8023825e+00
			vertex 2.0000000e+00 2.0000000e+00 4.0000000e+00
		endloop 
	endfacet 
	facet normal 1.0000000e+00 0.0000000e+00 0.0000000e+00
		outer loop
			vertex 2.0000000e+00 7.5883341e+00 1.0192859e+01
			vertex 2.0000000e+00 7.4960260e+00 9.4326324e+00
			vertex 2.0000000e+00 1.0000000e+01 4.0000000e+00
		endloop 
	endfacet 
	facet normal 1.0000000e+00 0.0000000e+00 0.0000000e+00
		outer loop
			vertex 2.0000000e+00 4.9390039e+00 8.8023825e+00
			vertex 2.0000000e+00 4.5039740e+00 9.4326324e+00
			vertex 2.0000000e+00 2.0000000e+00 4.0000000e+00
		endloop 
	endfacet 
	facet normal 1.0000000e+00 -0.0000000e+00 0.0000000e+00
		outer loop
			vertex 2.0000000e+00 6.0000000e+00 1.1600000e+01
			vertex 2.0000000e+00 6.7435570e+00 1.1416730e+01
			vertex 2.0000000e+00 1.0000000e+01 1.6000000e+01
		endloop 
	endfacet 
	facet normal 1.0000000e+00 0.0000000e+00 0.0000000e+00
		outer loop
			vertex 2.0000000e+00 7.0609961e+00 8.8023825e+00
			vertex 2.0000000e+00 6.3829050e+00 8.4464931e+00
			vertex 2.0000000e+00 1.0000000e+01 4.0000000e+00
		endloop 
	endfacet 
	facet normal 1.9509040e-01 0.0000000e+00 9.8078525e-01
		outer loop
			vertex 3.2346332e+00 2.0000000e+00 2.1522410e+00
			vertex 4.0000000e+00 2.0000000e+00 2.0000000e+00
			vertex 4.0000000e+00 1.0000000e+01 2.0000000e+00
		endloop 
	endfacet 
	facet normal 5.5557001e-01 0.0000000e+00 8.3146977e-01
		outer loop
			vertex 2.5857863e+00 2.0000000e+00 2.5857863e+00
			vertex 3.2346332e+00 2.0000000e+00 2.1522410e+00
			vertex 3.2346332e+00 1.0000000e+01 2.1522410e+00
		endloop 
	endfacet 
	facet normal 8.3146977e-01 0.0000000e+00 5.5557001e-01
		outer loop
			vertex 2.1522410e+00 2.0000000e+00 3.2346332e+00
			vertex 2.5857863e+00 2.0000000e+00 2.5857863e+00
			vertex 2.5857863e+00 1.0000000e+01 2.5857863e+00
		endloop 
	endfacet 
	facet normal 9.8078525e-01 0.0000000e+00 1.9509040e-01
		outer loop
			vertex 2.0000000e+00 2.0000000e+00 4.0000000e+00
			vertex 2.1522410e+00 2.0000000e+00 3.2346332e+00
			vertex 2.1522410e+00 1.0000000e+01 3.2346332e+00
		endloop 
	endfacet 
	facet normal 9.8078525e-01 0.0000000e+00 1.9509040e-01
		outer loop
			vertex 2.1522410e+00 1.0000000e+01 3.2346332e+00
			vertex 2.0000000e+00 1.0000000e+01 4.0000000e+00
			vertex 2.0000000e+00 2.0000000e+00 4.0000000e+00
		endloop 
	endfacet 
	facet normal 8.3146977e-01 0.0000000e+00 5.5557001e-01
		outer loop
			vertex 2.5857863e+00 1.0000000e+01 2.5857863e+00
			vertex 2.1522410e+00 1.0000000e+01 3.2346332e+00
			vertex 2.1522410e+00 2.0000000e+00 3.2346332e+00
		endloop 
	endfacet 
	facet normal 5.5557001e-01 0.0000000e+00 8.3146977e-01
		outer loop
			vertex 3.2346332e+00 1.0000000e+01 2.1522410e+00
			vertex 2.5857863e+00 1.0000000e+01 2.5857863e+00
			vertex 2.5857863e+00 2.0000000e+00 2.5857863e+00
		endloop 
	endfacet 
	facet normal 1.9509040e-01 0.0000000e+00 9.8078525e-01
		outer loop
			vertex 4.0000000e+00 1.0000000e+01 2.0000000e+00
			vertex 3.2346332e+00 1.0000000e+01 2.1522410e+00
			vertex 3.2346332e+00 2.0000000e+00 2.1522410e+00
		endloop 
	endfacet 
	facet normal 0.0000000e+00 0.0000000e+00 1.0000000e+00
		outer loop
			vertex 1.6000000e+01 1.0000000e+01 2.0000000e+00
			vertex 4.0000000e+00 1.0000000e+01 2.0000000e+00
			vertex 9.8071413e+00 7.5883341e+00 2.0000000e+00
		endloop 
	endfacet 
	facet normal 0.0000000e+00 0.0000000e+00 1.0000000e+00
		outer loop
			vertex 4.0000000e+00 1.0000000e+01 2.0000000e+00
			vertex 8.5832701e+00 6.7435570e+00 2.0000000e+00
			vertex 9.0910969e+00 7.3167744e+00 2.0000000e+00
		endloop 
	endfacet 
	facet normal 0.0000000e+00 -0.0000000e+00 1.0000000e+00
		outer loop
			vertex 1.6000000e+01 2.0000000e+00 2.0000000e+00
			vertex 1.6000000e+01 1.0000000e+01 2.0000000e+00
			vertex 1.1553507e+01 6.3829050e+00 2.0000000e+00
		endloop 
	endfacet 
	facet normal 0.0000000e+00 0.0000000e+00 1.0000000e+00
		outer loop
			vertex 1.6000000e+01 1.0000000e+01 2.0000000e+00
			vertex 1.0567368e+01 7.4960260e+00 2.0000000e+00
			vertex 1.1197618e+01 7.0609961e+00 2.0000000e+00
		endloop 
	endfacet 
	facet normal 0.0000000e+00 -0.0000000e+00 1.0000000e+00
		outer loop
			vertex 9.0910969e+00 7.3167744e+00 2.0000000e+00
			vertex 9.8071413e+00 7.5883341e+00 2.0000000e+00
			vertex 4.0000000e+00 1.0000000e+01 2.0000000e+00
		endloop 
	endfacet 
	facet normal 0.0000000e+00 0.0000000e+00 1.0000000e+00
		outer loop
			vertex 4.0000000e+00 2.0000000e+00 2.0000000e+00
			vertex 8.5832701e+00 5.2564430e+00 2.0000000e+00
			vertex 8.3999996e+00 6.0000000e+00 2.0000000e+00
		endloop 
	endfacet 
	facet normal 0.0000000e+00 0.0000000e+00 1.0000000e+00
		outer loop
			vertex 4.0000000e+00 2.0000000e+00 2.0000000e+00
			vertex 9.8071413e+00 4.4116659e+00 2.0000000e+00
			vertex 9.0910969e+00 4.6832256e+00 2.0000000e+00
		endloop 
	endfacet 
	facet normal 0.0000000e+00 0.0000000e+00 1.0000000e+00
		outer loop
			vertex 1.6000000e+01 2.0000000e+00 2.0000000e+00
			vertex 1.0567368e+01 4.5039740e+00 2.0000000e+00
			vertex 9.8071413e+00 4.4116659e+00 2.0000000e+00
		endloop 
	endfacet 
	facet normal 0.0000000e+00 0.0000000e+00 1.0000000e+00
		outer loop
			vertex 1.1553507e+01 6.3829050e+00 2.0000000e+00
			vertex 1.1553507e+01 5.6170950e+00 2.0000000e+00
			vertex 1.6000000e+01 2.0000000e+00 2.0000000e+00
		endloop 
	endfacet 
	facet normal -0.0000000e+00 0.0000000e+00 1.0000000e+00
		outer loop
			vertex 9.8071413e+00 7.5883341e+00 2.0000000e+00
			vertex 1.0567368e+01 7.4960260e+00 2.0000000e+00
			vertex 1.6000000e+01 1.0000000e+01 2.0000000e+00
		endloop 
	endfacet 
	facet normal 0.0000000e+00 0.0000000e+00 1.0000000e+00
		outer loop
			vertex 8.3999996e+00 6.0000000e+00 2.0000000e+00
			vertex 4.0000000e+00 1.0000000e+01 2.0000000e+00
			vertex 4.0000000e+00 2.0000000e+00 2.0000000e+00
		endloop 
	endfacet 
	facet normal 0.0000000e+00 0.0000000e+00 1.0000000e+00
		outer loop
			vertex 9.8071413e+00 4.4116659e+00 2.0000000e+00
			vertex 4.0000000e+00 2.0000000e+00 2.0000000e+00
			vertex 1.6000000e+01 2.0000000e+00 2.0000000e+00
		endloop 
	endfacet 
	facet normal 0.0000000e+00 0.0000000e+00 1.0000000e+00
		outer loop
			vertex 1.1553507e+01 5.6170950e+00 2.0000000e+00
			vertex 1.1197618e+01 4.9390039e+00 2.0000000e+00
			vertex 1.6000000e+01 2.0000000e+00 2.0000000e+00
		endloop 
	endfacet 
	facet normal 0.0000000e+00 -0.0000000e+00 1.0000000e+00
		outer loop
			vertex 8.3999996e+00 6.0000000e+00 2.0000000e+00
			vertex 8.5832701e+00 6.7435570e+00 2.0000000e+00
			vertex 4.0000000e+00 1.0000000e+01 2.0000000e+00
		endloop 
	endfacet 
	facet normal 0.0000000e+00 0.0000000e+00 1.0000000e+00
		outer loop
			vertex 1.1197618e+01 4.9390039e+00 2.0000000e+00
			vertex 1.0567368e+01 4.5039740e+00 2.0000000e+00
			vertex 1.6000000e+01 2.0000000e+00 2.0000000e+00
		endloop 
	endfacet 
	facet normal 0.0000000e+00 0.0000000e+00 1.0000000e+00
		outer loop
			vertex 9.0910969e+00 4.6832256e+00 2.0000000e+00
			vertex 8.5832701e+00 5.2564430e+00 2.0000000e+00
			vertex 4.0000000e+00 2.0000000e+00 2.0000000e+00
		endloop 
	endfacet 
	facet normal -0.0000000e+00 0.0000000e+00 1.0000000e+00
		outer loop
			vertex 1.1197618e+01 7.0609961e+00 2.0000000e+00
			vertex 1.1553507e+01 6.3829050e+00 2.0000000e+00
			vertex 1.6000000e+01 1.0000000e+01 2.0000000e+00
		endloop 
	endfacet 
	facet normal 9.7094184e-01 2.3931582e-01 0.0000000e+00
		outer loop
			vertex 8.5832701e+00 5.2564430e+00 0.0000000e+00
			vertex 8.3999996e+00 6.0000000e+00 0.0000000e+00
			vertex 8.3999996e+00 6.0000000e+00 2.0000000e+00
		endloop 
	endfacet 
	facet normal 7.4851042e-01 6.6312301e-01 0.0000000e+00
		outer loop
			vertex 9.0910969e+00 4.6832256e+00 0.0000000e+00
			vertex 8.5832701e+00 5.2564430e+00 0.0000000e+00
			vertex 8.5832701e+00 5.2564430e+00 2.0000000e+00
		endloop 
	endfacet 
	facet normal 3.5460478e-01 9.3501633e-01 0.0000000e+00
		outer loop
			vertex 9.8071413e+00 4.4116659e+00 0.0000000e+00
			vertex 9.0910969e+00 4.6832256e+00 0.0000000e+00
			vertex 9.0910969e+00 4.6832256e+00 2.0000000e+00
		endloop 
	endfacet 
	facet normal -1.8025488e-01 9.8361993e-01 0.0000000e+00
		outer loop
			vertex 1.0567368e+01 4.5039740e+00 2.0000000e+00
			vertex 1.0567368e+01 4.5039740e+00 0.0000000e+00
			vertex 1.0000000e+01 4.4000001e+00 0.0000000e+00
		endloop 
	endfacet 
	facet normal -1.2051824e-01 9.9255842e-01 -1.7410999e-02
		outer loop
			vertex 1.0000000e+01 4.4000001e+00 0.0000000e+00
			vertex 9.8071413e+00 4.4116659e+00 2.0000000e+00
			vertex 1.0567368e+01 4.5039740e+00 2.0000000e+00
		endloop 
	endfacet 
	facet normal -5.6806457e-01 8.2298392e-01 0.0000000e+00
		outer loop
			vertex 1.1197618e+01 4.9390039e+00 0.0000000e+00
			vertex 1.0567368e+01 4.5039740e+00 0.0000000e+00
			vertex 1.0567368e+01 4.5039740e+00 2.0000000e+00
		endloop 
	endfacet 
	facet normal -8.8545620e-01 4.6472284e-01 0.0000000e+00
		outer loop
			vertex 1.1553507e+01 5.6170950e+00 0.0000000e+00
			vertex 1.1197618e+01 4.9390039e+00 0.0000000e+00
			vertex 1.1197618e+01 4.9390039e+00 2.0000000e+00
		endloop 
	endfacet 
	facet normal -1.0000000e+00 0.0000000e+00 0.0000000e+00
		outer loop
			vertex 1.1553507e+01 6.3829050e+00 0.0000000e+00
			vertex 1.1553507e+01 5.6170950e+00 0.0000000e+00
			vertex 1.1553507e+01 5.6170950e+00 2.0000000e+00
		endloop 
	endfacet 
	facet normal -8.8545620e-01 -4.6472284e-01 0.0000000e+00
		outer loop
			vertex 1.1197618e+01 7.0609961e+00 0.0000000e+00
			vertex 1.1553507e+01 6.3829050e+00 0.0000000e+00
			vertex 1.1553507e+01 6.3829050e+00 2.0000000e+00
		endloop 
	endfacet 
	facet normal -5.6806457e-01 -8.2298392e-01 0.0000000e+00
		outer loop
			vertex 1.0567368e+01 7.4960260e+00 0.0000000e+00
			vertex 1.1197618e+01 7.0609961e+00 0.0000000e+00
			vertex 1.1197618e+01 7.0609961e+00 2.0000000e+00
		endloop 
	endfacet 
	facet normal -1.2053651e-01 -9.9270892e-01 0.0000000e+00
		outer loop
			vertex 9.8071413e+00 7.5883341e+00 0.0000000e+00
			vertex 1.0567368e+01 7.4960260e+00 0.0000000e+00
			vertex 1.0567368e+01 7.4960260e+00 2.0000000e+00
		endloop 
	endfacet 
	facet normal 3.5460478e-01 -9.3501633e-01 0.0000000e+00
		outer loop
			vertex 9.0910969e+00 7.3167744e+00 0.0000000e+00
			vertex 9.8071413e+00 7.5883341e+00 0.0000000e+00
			vertex 9.8071413e+00 7.5883341e+00 2.0000000e+00
		endloop 
	endfacet 
	facet normal 7.4851042e-01 -6.6312301e-01 0.0000000e+00
		outer loop
			vertex 8.5832701e+00 6.7435570e+00 0.0000000e+00
			vertex 9.0910969e+00 7.3167744e+00 0.0000000e+00
			vertex 9.0910969e+00 7.3167744e+00 2.0000000e+00
		endloop 
	endfacet 
	facet normal 9.7094184e-01 -2.3931582e-01 0.0000000e+00
		outer loop
			vertex 8.3999996e+00 6.0000000e+00 0.0000000e+00
			vertex 8.5832701e+00 6.7435570e+00 0.0000000e+00
			vertex 8.5832701e+00 6.7435570e+00 2.0000000e+00
		endloop 
	endfacet 
	facet normal 9.7094184e-01 -2.3931582e-01 0.0000000e+00
		outer loop
			vertex 8.5832701e+00 6.7435570e+00 2.0000000e+00
			vertex 8.3999996e+00 6.0000000e+00 2.0000000e+00
			vertex 8.3999996e+00 6.0000000e+00 0.0000000e+00
		endloop 
	endfacet 
	facet normal 7.4851042e-01 -6.6312301e-01 0.0000000e+00
		outer loop
			vertex 9.0910969e+00 7.3167744e+00 2.0000000e+00
			vertex 8.5832701e+00 6.7435570e+00 2.0000000e+00
			vertex 8.5832701e+00 6.7435570e+00 0.0000000e+00
		endloop 
	endfacet 
	facet normal 3.5460478e-01 -9.3501633e-01 0.0000000e+00
		outer loop
			vertex 9.8071413e+00 7.5883341e+00 2.0000000e+00
			vertex 9.0910969e+00 7.3167744e+00 2.0000000e+00
			vertex 9.0910969e+00 7.3167744e+00 0.0000000e+00
		endloop 
	endfacet 
	facet normal -1.2053651e-01 -9.9270892e-01 0.0000000e+00
		outer loop
			vertex 1.0567368e+01 7.4960260e+00 2.0000000e+00
			vertex 9.8071413e+00 7.5883341e+00 2.0000000e+00
			vertex 9.8071413e+00 7.5883341e+00 0.0000000e+00
		endloop 
	endfacet 
	facet normal -5.6806457e-01 -8.2298392e-01 0.0000000e+00
		outer loop
			vertex 1.1197618e+01 7.0609961e+00 2.0000000e+00
			vertex 1.0567368e+01 7.4960260e+00 2.0000000e+00
			vertex 1.0567368e+01 7.4960260e+00 0.0000000e+00
		endloop 
	endfacet 
	facet normal -8.8545620e-01 -4.6472284e-01 0.0000000e+00
		outer loop
			vertex 1.1553507e+01 6.3829050e+00 2.0000000e+00
			vertex 1.1197618e+01 7.0609961e+00 2.0000000e+00
			vertex 1.1197618e+01 7.0609961e+00 0.0000000e+00
		endloop 
	endfacet 
	facet normal -1.0000000e+00 0.0000000e+00 0.0000000e+00
		outer loop
			vertex 1.1553507e+01 5.6170950e+00 2.0000000e+00
			vertex 1.1553507e+01 6.3829050e+00 2.0000000e+00
			vertex 1.1553507e+01 6.3829050e+00 0.0000000e+00
		endloop 
	endfacet 
	facet normal -8.8545620e-01 4.6472284e-01 0.0000000e+00
		outer loop
			vertex 1.1197618e+01 4.9390039e+00 2.0000000e+00
			vertex 1.1553507e+01 5.6170950e+00 2.0000000e+00
			vertex 1.1553507e+01 5.6170950e+00 0.0000000e+00
		endloop 
	endfacet 
	facet normal -5.6806457e-01 8.2298392e-01 0.0000000e+00
		outer loop
			vertex 1.0567368e+01 4.5039740e+00 2.0000000e+00
			vertex 1.1197618e+01 4.9390039e+00 2.0000000e+00
			vertex 1.1197618e+01 4.9390039e+00 0.0000000e+00
		endloop 
	endfacet 
	facet normal 6.0378596e-02 9.9817556e-01 0.0000000e+00
		outer loop
			vertex 1.0000000e+01 4.4000001e+00 0.0000000e+00
			vertex 9.8071413e+00 4.4116659e+00 0.0000000e+00
			vertex 9.8071413e+00 4.4116659e+00 2.0000000e+00
		endloop 
	endfacet 
	facet normal 3.5460478e-01 9.3501633e-01 0.0000000e+00
		outer loop
			vertex 9.0910969e+00 4.6832256e+00 2.0000000e+00
			vertex 9.8071413e+00 4.4116659e+00 2.0000000e+00
			vertex 9.8071413e+00 4.4116659e+00 0.0000000e+00
		endloop 
	endfacet 
	facet normal 7.4851042e-01 6.6312301e-01 0.0000000e+00
		outer loop
			vertex 8.5832701e+00 5.2564430e+00 2.0000000e+00
			vertex 9.0910969e+00 4.6832256e+00 2.0000000e+00
			vertex 9.0910969e+00 4.6832256e+00 0.0000000e+00
		endloop 
	endfacet 
	facet normal 9.7094184e-01 2.3931582e-01 0.0000000e+00
		outer loop
			vertex 8.3999996e+00 6.0000000e+00 2.0000000e+00
			vertex 8.5832701e+00 5.2564430e+00 2.0000000e+00
			vertex 8.5832701e+00 5.2564430e+00 0.0000000e+00
		endloop 
	endfacet 
	facet normal 0.0000000e+00 1.0000000e+00 0.0000000e+00
		outer loop
			vertex 2.0000000e+00 2.0000000e+00 4.0000000e+00
			vertex 3.1715729e+00 2.0000000e+00 1.6000000e+01
			vertex 3.9369397e+00 2.0000000e+00 1.5847759e+01
		endloop 
	endfacet 
	facet normal 0.0000000e+00 1.0000000e+00 0.0000000e+00
		outer loop
			vertex 3.9369397e+00 2.0000000e+00 1.5847759e+01
			vertex 4.5857863e+00 2.0000000e+00 1.5414213e+01
			vertex 2.0000000e+00 2.0000000e+00 4.0000000e+00
		endloop 
	endfacet 
	facet normal 0.0000000e+00 1.0000000e+00 0.0000000e+00
		outer loop
			vertex 1.5414213e+01 2.0000000e+00 4.5857863e+00
			vertex 2.5857863e+00 2.0000000e+00 2.5857863e+00
			vertex 2.1522410e+00 2.0000000e+00 3.2346332e+00
		endloop 
	endfacet 
	facet normal 0.0000000e+00 1.0000000e+00 0.0000000e+00
		outer loop
			vertex 1.5414213e+01 2.0000000e+00 4.5857863e+00
			vertex 4.0000000e+00 2.0000000e+00 2.0000000e+00
			vertex 3.2346332e+00 2.0000000e+00 2.1522410e+00
		endloop 
	endfacet 
	facet normal 0.0000000e+00 1.0000000e+00 0.0000000e+00
		outer loop
			vertex 4.0000000e+00 2.0000000e+00 2.0000000e+00
			vertex 1.5414213e+01 2.0000000e+00 4.5857863e+00
			vertex 1.5847759e+01 2.0000000e+00 3.9369397e+00
		endloop 
	endfacet 
	facet normal 0.0000000e+00 1.0000000e+00 0.0000000e+00
		outer loop
			vertex 2.0000000e+00 2.0000000e+00 4.0000000e+00
			vertex 2.0000000e+00 2.0000000e+00 1.6000000e+01
			vertex 3.1715729e+00 2.0000000e+00 1.6000000e+01
		endloop 
	endfacet 
	facet normal 0.0000000e+00 1.0000000e+00 -0.0000000e+00
		outer loop
			vertex 3.2346332e+00 2.0000000e+00 2.1522410e+00
			vertex 2.5857863e+00 2.0000000e+00 2.5857863e+00
			vertex 1.5414213e+01 2.0000000e+00 4.5857863e+00
		endloop 
	endfacet 
	facet normal 0.0000000e+00 1.0000000e+00 0.0000000e+00
		outer loop
			vertex 1.5847759e+01 2.0000000e+00 3.9369397e+00
			vertex 1.6000000e+01 2.0000000e+00 3.1715729e+00
			vertex 4.0000000e+00 2.0000000e+00 2.0000000e+00
		endloop 
	endfacet 
	facet normal 0.0000000e+00 9.9999994e-01 -0.0000000e+00
		outer loop
			vertex 2.1522410e+00 2.0000000e+00 3.2346332e+00
			vertex 2.0000000e+00 2.0000000e+00 4.0000000e+00
			vertex 1.5414213e+01 2.0000000e+00 4.5857863e+00
		endloop 
	endfacet 
	facet normal 0.0000000e+00 1.0000000e+00 0.0000000e+00
		outer loop
			vertex 4.5857863e+00 2.0000000e+00 1.5414213e+01
			vertex 1.5414213e+01 2.0000000e+00 4.5857863e+00
			vertex 2.0000000e+00 2.0000000e+00 4.0000000e+00
		endloop 
	endfacet 
	facet normal 0.0000000e+00 1.0000000e+00 0.0000000e+00
		outer loop
			vertex 1.6000000e+01 2.0000000e+00 3.1715729e+00
			vertex 1.6000000e+01 2.0000000e+00 2.0000000e+00
			vertex 4.0000000e+00 2.0000000e+00 2.0000000e+00
		endloop 
	endfacet 
	facet normal 5.5557078e-01 -0.0000000e+00 8.3146924e-01
		outer loop
			vertex 4.5857863e+00 1.0000000e+00 1.5414213e+01
			vertex 4.5857863e+00 2.0000000e+00 1.5414213e+01
			vertex 3.9369397e+00 2.0000000e+00 1.5847759e+01
		endloop 
	endfacet 
	facet normal 1.9509012e-01 -0.0000000e+00 9.8078531e-01
		outer loop
			vertex 3.9369397e+00 1.0000000e+00 1.5847759e+01
			vertex 3.9369397e+00 2.0000000e+00 1.5847759e+01
			vertex 3.1715729e+00 2.0000000e+00 1.6000000e+01
		endloop 
	endfacet 
	facet normal 1.9509012e-01 0.0000000e+00 9.8078531e-01
		outer loop
			vertex 3.1715729e+00 2.0000000e+00 1.6000000e+01
			vertex 3.1715729e+00 1.0000000e+00 1.6000000e+01
			vertex 3.9369397e+00 1.0000000e+00 1.5847759e+01
		endloop 
	endfacet 
	facet normal 5.5557078e-01 0.0000000e+00 8.3146924e-01
		outer loop
			vertex 3.9369397e+00 2.0000000e+00 1.5847759e+01
			vertex 3.9369397e+00 1.0000000e+00 1.5847759e+01
			vertex 4.5857863e+00 1.0000000e+00 1.5414213e+01
		endloop 
	endfacet 
	facet normal 7.0710677e-01 0.0000000e+00 7.0710677e-01
		outer loop
			vertex 1.5414213e+01 2.0000000e+00 4.5857863e+00
			vertex 4.5857863e+00 2.0000000e+00 1.5414213e+01
			vertex 4.5857863e+00 1.0000000e+00 1.5414213e+01
		endloop 
	endfacet 
	facet normal 7.0710677e-01 0.0000000e+00 7.0710677e-01
		outer loop
			vertex 4.5857863e+00 1.0000000e+00 1.5414213e+01
			vertex 1.5414213e+01 1.0000000e+00 4.5857863e+00
			vertex 1.5414213e+01 2.0000000e+00 4.5857863e+00
		endloop 
	endfacet 
	facet normal 9.8078531e-01 -0.0000000e+00 1.9509012e-01
		outer loop
			vertex 1.6000000e+01 1.0000000e+00 3.1715729e+00
			vertex 1.6000000e+01 2.0000000e+00 3.1715729e+00
			vertex 1.5847759e+01 2.0000000e+00 3.9369397e+00
		endloop 
	endfacet 
	facet normal 8.3146924e-01 -0.0000000e+00 5.5557078e-01
		outer loop
			vertex 1.5847759e+01 1.0000000e+00 3.9369397e+00
			vertex 1.5847759e+01 2.0000000e+00 3.9369397e+00
			vertex 1.5414213e+01 2.0000000e+00 4.5857863e+00
		endloop 
	endfacet 
	facet normal 8.3146924e-01 0.0000000e+00 5.5557078e-01
		outer loop
			vertex 1.5414213e+01 2.0000000e+00 4.5857863e+00
			vertex 1.5414213e+01 1.0000000e+00 4.5857863e+00
			vertex 1.5847759e+01 1.0000000e+00 3.9369397e+00
		endloop 
	endfacet 
	facet normal 9.8078531e-01 0.0000000e+00 1.9509012e-01
		outer loop
			vertex 1.5847759e+01 2.0000000e+00 3.9369397e+00
			vertex 1.5847759e+01 1.0000000e+00 3.9369397e+00
			vertex 1.6000000e+01 1.0000000e+00 3.1715729e+00
		endloop 
	endfacet 
	facet normal 6.9352001e-01 -1.9509050e-01 6.9352001e-01
		outer loop
			vertex 1.5414213e+01 1.0000000e+00 4.5857863e+00
			vertex 4.5857863e+00 1.0000000e+00 1.5414213e+01
			vertex 4.5319610e+00 6.1731654e-01 1.5360388e+01
		endloop 
	endfacet 
	facet normal 5.8793819e-01 -5.5556947e-01 5.8793819e-01
		outer loop
			vertex 1.5360388e+01 6.1731654e-01 4.5319610e+00
			vertex 4.5319610e+00 6.1731654e-01 1.5360388e+01
			vertex 4.3786798e+00 2.9289323e-01 1.5207107e+01
		endloop 
	endfacet 
	facet normal 3.9284790e-01 -8.3146918e-01 3.9284790e-01
		outer loop
			vertex 1.5207107e+01 2.9289323e-01 4.3786798e+00
			vertex 4.3786798e+00 2.9289323e-01 1.5207107e+01
			vertex 4.1492777e+00 7.6120466e-02 1.4977705e+01
		endloop 
	endfacet 
	facet normal 1.3794962e-01 -9.8078525e-01 1.3794962e-01
		outer loop
			vertex 1.4977705e+01 7.6120466e-02 4.1492777e+00
			vertex 4.1492777e+00 7.6120466e-02 1.4977705e+01
			vertex 3.8786798e+00 0.0000000e+00 1.4707107e+01
		endloop 
	endfacet 
	facet normal 1.3794960e-01 -9.8078525e-01 1.3794960e-01
		outer loop
			vertex 3.8786798e+00 0.0000000e+00 1.4707107e+01
			vertex 1.4707107e+01 0.0000000e+00 3.8786798e+00
			vertex 1.4977705e+01 7.6120466e-02 4.1492777e+00
		endloop 
	endfacet 
	facet normal 3.9284793e-01 -8.3146918e-01 3.9284793e-01
		outer loop
			vertex 4.1492777e+00 7.6120466e-02 1.4977705e+01
			vertex 1.4977705e+01 7.6120466e-02 4.1492777e+00
			vertex 1.5207107e+01 2.9289323e-01 4.3786798e+00
		endloop 
	endfacet 
	facet normal 5.8793819e-01 -5.5556947e-01 5.8793819e-01
		outer loop
			vertex 4.3786798e+00 2.9289323e-01 1.5207107e+01
			vertex 1.5207107e+01 2.9289323e-01 4.3786798e+00
			vertex 1.5360388e+01 6.1731654e-01 4.5319610e+00
		endloop 
	endfacet 
	facet normal 6.9352001e-01 -1.9509050e-01 6.9352001e-01
		outer loop
			vertex 4.5319610e+00 6.1731654e-01 1.5360388e+01
			vertex 1.5360388e+01 6.1731654e-01 4.5319610e+00
			vertex 1.5414213e+01 1.0000000e+00 4.5857863e+00
		endloop 
	endfacet 
	facet normal 3.8776629e-02 -9.8004764e-01 1.9494343e-01
		outer loop
			vertex 3.1715729e+00 7.6120466e-02 1.5382684e+01
			vertex 3.1715729e+00 0.0000000e+00 1.5000000e+01
			vertex 3.5542562e+00 0.0000000e+00 1.4923880e+01
		endloop 
	endfacet 
	facet normal 1.1042663e-01 -9.8004770e-01 1.6526502e-01
		outer loop
			vertex 3.7007029e+00 7.6120466e-02 1.5277433e+01
			vertex 3.5542562e+00 0.0000000e+00 1.4923880e+01
			vertex 3.8786798e+00 0.0000000e+00 1.4707107e+01
		endloop 
	endfacet 
	facet normal 1.0984107e-01 -8.2643813e-01 5.5220920e-01
		outer loop
			vertex 3.1715729e+00 2.9289323e-01 1.5707107e+01
			vertex 3.1715729e+00 7.6120466e-02 1.5382684e+01
			vertex 3.7007029e+00 7.6120466e-02 1.5277433e+01
		endloop 
	endfacet 
	facet normal 3.1280160e-01 -8.2643795e-01 4.6814024e-01
		outer loop
			vertex 3.8248544e+00 2.9289323e-01 1.5577161e+01
			vertex 3.7007029e+00 7.6120466e-02 1.5277433e+01
			vertex 4.1492777e+00 7.6120466e-02 1.4977705e+01
		endloop 
	endfacet 
	facet normal 1.6317289e-01 -5.4812473e-01 8.2032549e-01
		outer loop
			vertex 3.1715729e+00 6.1731654e-01 1.5923880e+01
			vertex 3.1715729e+00 2.9289323e-01 1.5707107e+01
			vertex 3.8248544e+00 2.9289323e-01 1.5577161e+01
		endloop 
	endfacet 
	facet normal 4.6467686e-01 -5.4812521e-01 6.9543809e-01
		outer loop
			vertex 3.9078097e+00 6.1731654e-01 1.5777433e+01
			vertex 3.8248544e+00 2.9289323e-01 1.5577161e+01
			vertex 4.3786798e+00 2.9289323e-01 1.5207107e+01
		endloop 
	endfacet 
	facet normal 1.9147998e-01 -1.9148023e-01 9.6263736e-01
		outer loop
			vertex 3.1715729e+00 1.0000000e+00 1.6000000e+01
			vertex 3.1715729e+00 6.1731654e-01 1.5923880e+01
			vertex 3.9078097e+00 6.1731654e-01 1.5777433e+01
		endloop 
	endfacet 
	facet normal 5.4529124e-01 -1.9147973e-01 8.1608397e-01
		outer loop
			vertex 3.9369397e+00 1.0000000e+00 1.5847759e+01
			vertex 3.9078097e+00 6.1731654e-01 1.5777433e+01
			vertex 4.5319610e+00 6.1731654e-01 1.5360388e+01
		endloop 
	endfacet 
	facet normal 5.4529071e-01 -1.9148074e-01 8.1608409e-01
		outer loop
			vertex 4.5319610e+00 6.1731654e-01 1.5360388e+01
			vertex 4.5857863e+00 1.0000000e+00 1.5414213e+01
			vertex 3.9369397e+00 1.0000000e+00 1.5847759e+01
		endloop 
	endfacet 
	facet normal 1.9148028e-01 -1.9147970e-01 9.6263742e-01
		outer loop
			vertex 3.9078097e+00 6.1731654e-01 1.5777433e+01
			vertex 3.9369397e+00 1.0000000e+00 1.5847759e+01
			vertex 3.1715729e+00 1.0000000e+00 1.6000000e+01
		endloop 
	endfacet 
	facet normal 4.6467835e-01 -5.4812366e-01 6.9543839e-01
		outer loop
			vertex 4.3786798e+00 2.9289323e-01 1.5207107e+01
			vertex 4.5319610e+00 6.1731654e-01 1.5360388e+01
			vertex 3.9078097e+00 6.1731654e-01 1.5777433e+01
		endloop 
	endfacet 
	facet normal 1.6317239e-01 -5.4812533e-01 8.2032514e-01
		outer loop
			vertex 3.8248544e+00 2.9289323e-01 1.5577161e+01
			vertex 3.9078097e+00 6.1731654e-01 1.5777433e+01
			vertex 3.1715729e+00 6.1731654e-01 1.5923880e+01
		endloop 
	endfacet 
	facet normal 3.1280115e-01 -8.2643831e-01 4.6814010e-01
		outer loop
			vertex 4.1492777e+00 7.6120466e-02 1.4977705e+01
			vertex 4.3786798e+00 2.9289323e-01 1.5207107e+01
			vertex 3.8248544e+00 2.9289323e-01 1.5577161e+01
		endloop 
	endfacet 
	facet normal 1.0984126e-01 -8.2643801e-01 5.5220932e-01
		outer loop
			vertex 3.7007029e+00 7.6120466e-02 1.5277433e+01
			vertex 3.8248544e+00 2.9289323e-01 1.5577161e+01
			vertex 3.1715729e+00 2.9289323e-01 1.5707107e+01
		endloop 
	endfacet 
	facet normal 1.1042667e-01 -9.8004764e-01 1.6526501e-01
		outer loop
			vertex 3.8786798e+00 0.0000000e+00 1.4707107e+01
			vertex 4.1492777e+00 7.6120466e-02 1.4977705e+01
			vertex 3.7007029e+00 7.6120466e-02 1.5277433e+01
		endloop 
	endfacet 
	facet normal 3.8776606e-02 -9.8004770e-01 1.9494341e-01
		outer loop
			vertex 3.5542562e+00 0.0000000e+00 1.4923880e+01
			vertex 3.7007029e+00 7.6120466e-02 1.5277433e+01
			vertex 3.1715729e+00 7.6120466e-02 1.5382684e+01
		endloop 
	endfacet 
	facet normal 0.0000000e+00 -1.9509007e-01 9.8078525e-01
		outer loop
			vertex 3.1715729e+00 1.0000000e+00 1.6000000e+01
			vertex 0.0000000e+00 1.0000000e+00 1.6000000e+01
			vertex 0.0000000e+00 6.1731654e-01 1.5923880e+01
		endloop 
	endfacet 
	facet normal 0.0000000e+00 -5.5557072e-01 8.3146918e-01
		outer loop
			vertex 3.1715729e+00 6.1731654e-01 1.5923880e+01
			vertex 0.0000000e+00 6.1731654e-01 1.5923880e+01
			vertex 0.0000000e+00 2.9289323e-01 1.5707107e+01
		endloop 
	endfacet 
	facet normal 0.0000000e+00 -8.3146918e-01 5.5557084e-01
		outer loop
			vertex 3.1715729e+00 2.9289323e-01 1.5707107e+01
			vertex 0.0000000e+00 2.9289323e-01 1.5707107e+01
			vertex 0.0000000e+00 7.6120466e-02 1.5382684e+01
		endloop 
	endfacet 
	facet normal 0.0000000e+00 -9.8078531e-01 1.9509014e-01
		outer loop
			vertex 3.1715729e+00 7.6120466e-02 1.5382684e+01
			vertex 0.0000000e+00 7.6120466e-02 1.5382684e+01
			vertex 0.0000000e+00 0.0000000e+00 1.5000000e+01
		endloop 
	endfacet 
	facet normal 0.0000000e+00 -9.8078531e-01 1.9509014e-01
		outer loop
			vertex 0.0000000e+00 0.0000000e+00 1.5000000e+01
			vertex 3.1715729e+00 0.0000000e+00 1.5000000e+01
			vertex 3.1715729e+00 7.6120466e-02 1.5382684e+01
		endloop 
	endfacet 
	facet normal 0.0000000e+00 -8.3146918e-01 5.5557084e-01
		outer loop
			vertex 0.0000000e+00 7.6120466e-02 1.5382684e+01
			vertex 3.1715729e+00 7.6120466e-02 1.5382684e+01
			vertex 3.1715729e+00 2.9289323e-01 1.5707107e+01
		endloop 
	endfacet 
	facet normal 0.0000000e+00 -5.5557072e-01 8.3146918e-01
		outer loop
			vertex 0.0000000e+00 2.9289323e-01 1.5707107e+01
			vertex 3.1715729e+00 2.9289323e-01 1.5707107e+01
			vertex 3.1715729e+00 6.1731654e-01 1.5923880e+01
		endloop 
	endfacet 
	facet normal 0.0000000e+00 -1.9509007e-01 9.8078525e-01
		outer loop
			vertex 0.0000000e+00 6.1731654e-01 1.5923880e+01
			vertex 3.1715729e+00 6.1731654e-01 1.5923880e+01
			vertex 3.1715729e+00 1.0000000e+00 1.6000000e+01
		endloop 
	endfacet 
	facet normal 0.0000000e+00 -1.0000000e+00 0.0000000e+00
		outer loop
			vertex 0.0000000e+00 0.0000000e+00 0.0000000e+00
			vertex 3.8786798e+00 0.0000000e+00 1.4707107e+01
			vertex 3.5542562e+00 0.0000000e+00 1.4923880e+01
		endloop 
	endfacet 
	facet normal -0.0000000e+00 -1.0000000e+00 0.0000000e+00
		outer loop
			vertex 3.5542562e+00 0.0000000e+00 1.4923880e+01
			vertex 3.1715729e+00 0.0000000e+00 1.5000000e+01
			vertex 0.0000000e+00 0.0000000e+00 0.0000000e+00
		endloop 
	endfacet 
	facet normal 0.0000000e+00 -1.0000000e+00 0.0000000e+00
		outer loop
			vertex 0.0000000e+00 0.0000000e+00 0.0000000e+00
			vertex 1.5000000e+01 0.0000000e+00 3.1715729e+00
			vertex 1.4923880e+01 0.0000000e+00 3.5542562e+00
		endloop 
	endfacet 
	facet normal 0.0000000e+00 -1.0000000e+00 0.0000000e+00
		outer loop
			vertex 0.0000000e+00 0.0000000e+00 0.0000000e+00
			vertex 1.4707107e+01 0.0000000e+00 3.8786798e+00
			vertex 3.8786798e+00 0.0000000e+00 1.4707107e+01
		endloop 
	endfacet 
	facet normal 0.0000000e+00 -1.0000000e+00 0.0000000e+00
		outer loop
			vertex 0.0000000e+00 0.0000000e+00 0.0000000e+00
			vertex 1.5000000e+01 0.0000000e+00 0.0000000e+00
			vertex 1.5000000e+01 0.0000000e+00 3.1715729e+00
		endloop 
	endfacet 
	facet normal -0.0000000e+00 -1.0000000e+00 0.0000000e+00
		outer loop
			vertex 1.4923880e+01 0.0000000e+00 3.5542562e+00
			vertex 1.4707107e+01 0.0000000e+00 3.8786798e+00
			vertex 0.0000000e+00 0.0000000e+00 0.0000000e+00
		endloop 
	endfacet 
	facet normal -0.0000000e+00 -1.0000000e+00 0.0000000e+00
		outer loop
			vertex 3.1715729e+00 0.0000000e+00 1.5000000e+01
			vertex 0.0000000e+00 0.0000000e+00 1.5000000e+01
			vertex 0.0000000e+00 0.0000000e+00 0.0000000e+00
		endloop 
	endfacet 
	facet normal 1.6526505e-01 -9.8004770e-01 1.1042666e-01
		outer loop
			vertex 1.4977705e+01 7.6120466e-02 4.1492777e+00
			vertex 1.4707107e+01 0.0000000e+00 3.8786798e+00
			vertex 1.4923880e+01 0.0000000e+00 3.5542562e+00
		endloop 
	endfacet 
	facet normal 1.9494343e-01 -9.8004770e-01 3.8776625e-02
		outer loop
			vertex 1.5277433e+01 7.6120466e-02 3.7007029e+00
			vertex 1.4923880e+01 0.0000000e+00 3.5542562e+00
			vertex 1.5000000e+01 0.0000000e+00 3.1715729e+00
		endloop 
	endfacet 
	facet normal 4.6813989e-01 -8.2643831e-01 3.1280139e-01
		outer loop
			vertex 1.5207107e+01 2.9289323e-01 4.3786798e+00
			vertex 1.4977705e+01 7.6120466e-02 4.1492777e+00
			vertex 1.5277433e+01 7.6120466e-02 3.7007029e+00
		endloop 
	endfacet 
	facet normal 5.5220944e-01 -8.2643795e-01 1.0984113e-01
		outer loop
			vertex 1.5577161e+01 2.9289323e-01 3.8248544e+00
			vertex 1.5277433e+01 7.6120466e-02 3.7007029e+00
			vertex 1.5382684e+01 7.6120466e-02 3.1715729e+00
		endloop 
	endfacet 
	facet normal 6.9543898e-01 -5.4812360e-01 4.6467745e-01
		outer loop
			vertex 1.5360388e+01 6.1731654e-01 4.5319610e+00
			vertex 1.5207107e+01 2.9289323e-01 4.3786798e+00
			vertex 1.5577161e+01 2.9289323e-01 3.8248544e+00
		endloop 
	endfacet 
	facet normal 8.2032502e-01 -5.4812539e-01 1.6317278e-01
		outer loop
			vertex 1.5777433e+01 6.1731654e-01 3.9078097e+00
			vertex 1.5577161e+01 2.9289323e-01 3.8248544e+00
			vertex 1.5707107e+01 2.9289323e-01 3.1715729e+00
		endloop 
	endfacet 
	facet normal 8.1608379e-01 -1.9148077e-01 5.4529119e-01
		outer loop
			vertex 1.5414213e+01 1.0000000e+00 4.5857863e+00
			vertex 1.5360388e+01 6.1731654e-01 4.5319610e+00
			vertex 1.5777433e+01 6.1731654e-01 3.9078097e+00
		endloop 
	endfacet 
	facet normal 9.6263748e-01 -1.9147970e-01 1.9148001e-01
		outer loop
			vertex 1.5847759e+01 1.0000000e+00 3.9369397e+00
			vertex 1.5777433e+01 6.1731654e-01 3.9078097e+00
			vertex 1.5923880e+01 6.1731654e-01 3.1715729e+00
		endloop 
	endfacet 
	facet normal 9.6263736e-01 -1.9148023e-01 1.9148026e-01
		outer loop
			vertex 1.5923880e+01 6.1731654e-01 3.1715729e+00
			vertex 1.6000000e+01 1.0000000e+00 3.1715729e+00
			vertex 1.5847759e+01 1.0000000e+00 3.9369397e+00
		endloop 
	endfacet 
	facet normal 8.1608421e-01 -1.9147974e-01 5.4529083e-01
		outer loop
			vertex 1.5777433e+01 6.1731654e-01 3.9078097e+00
			vertex 1.5847759e+01 1.0000000e+00 3.9369397e+00
			vertex 1.5414213e+01 1.0000000e+00 4.5857863e+00
		endloop 
	endfacet 
	facet normal 8.2032555e-01 -5.4812479e-01 1.6317247e-01
		outer loop
			vertex 1.5707107e+01 2.9289323e-01 3.1715729e+00
			vertex 1.5923880e+01 6.1731654e-01 3.1715729e+00
			vertex 1.5777433e+01 6.1731654e-01 3.9078097e+00
		endloop 
	endfacet 
	facet normal 6.9543749e-01 -5.4812509e-01 4.6467769e-01
		outer loop
			vertex 1.5577161e+01 2.9289323e-01 3.8248544e+00
			vertex 1.5777433e+01 6.1731654e-01 3.9078097e+00
			vertex 1.5360388e+01 6.1731654e-01 4.5319610e+00
		endloop 
	endfacet 
	facet normal 5.5220920e-01 -8.2643807e-01 1.0984124e-01
		outer loop
			vertex 1.5382684e+01 7.6120466e-02 3.1715729e+00
			vertex 1.5707107e+01 2.9289323e-01 3.1715729e+00
			vertex 1.5577161e+01 2.9289323e-01 3.8248544e+00
		endloop 
	endfacet 
	facet normal 4.6814036e-01 -8.2643801e-01 3.1280133e-01
		outer loop
			vertex 1.5277433e+01 7.6120466e-02 3.7007029e+00
			vertex 1.5577161e+01 2.9289323e-01 3.8248544e+00
			vertex 1.5207107e+01 2.9289323e-01 4.3786798e+00
		endloop 
	endfacet 
	facet normal 1.9494343e-01 -9.8004764e-01 3.8776606e-02
		outer loop
			vertex 1.5000000e+01 0.0000000e+00 3.1715729e+00
			vertex 1.5382684e+01 7.6120466e-02 3.1715729e+00
			vertex 1.5277433e+01 7.6120466e-02 3.7007029e+00
		endloop 
	endfacet 
	facet normal 1.6526499e-01 -9.8004764e-01 1.1042666e-01
		outer loop
			vertex 1.4923880e+01 0.0000000e+00 3.5542562e+00
			vertex 1.5277433e+01 7.6120466e-02 3.7007029e+00
			vertex 1.4977705e+01 7.6120466e-02 4.1492777e+00
		endloop 
	endfacet 
	facet normal 9.8078525e-01 -1.9509007e-01 0.0000000e+00
		outer loop
			vertex 1.6000000e+01 1.0000000e+00 0.0000000e+00
			vertex 1.6000000e+01 1.0000000e+00 3.1715729e+00
			vertex 1.5923880e+01 6.1731654e-01 3.1715729e+00
		endloop 
	endfacet 
	facet normal 8.3146918e-01 -5.5557072e-01 0.0000000e+00
		outer loop
			vertex 1.5923880e+01 6.1731654e-01 0.0000000e+00
			vertex 1.5923880e+01 6.1731654e-01 3.1715729e+00
			vertex 1.5707107e+01 2.9289323e-01 3.1715729e+00
		endloop 
	endfacet 
	facet normal 5.5557084e-01 -8.3146918e-01 0.0000000e+00
		outer loop
			vertex 1.5707107e+01 2.9289323e-01 0.0000000e+00
			vertex 1.5707107e+01 2.9289323e-01 3.1715729e+00
			vertex 1.5382684e+01 7.6120466e-02 3.1715729e+00
		endloop 
	endfacet 
	facet normal 1.9509014e-01 -9.8078531e-01 0.0000000e+00
		outer loop
			vertex 1.5382684e+01 7.6120466e-02 0.0000000e+00
			vertex 1.5382684e+01 7.6120466e-02 3.1715729e+00
			vertex 1.5000000e+01 0.0000000e+00 3.1715729e+00
		endloop 
	endfacet 
	facet normal 1.9509014e-01 -9.8078531e-01 0.0000000e+00
		outer loop
			vertex 1.5000000e+01 0.0000000e+00 3.1715729e+00
			vertex 1.5000000e+01 0.0000000e+00 0.0000000e+00
			vertex 1.5382684e+01 7.6120466e-02 0.0000000e+00
		endloop 
	endfacet 
	facet normal 5.5557084e-01 -8.3146918e-01 0.0000000e+00
		outer loop
			vertex 1.5382684e+01 7.6120466e-02 3.1715729e+00
			vertex 1.5382684e+01 7.6120466e-02 0.0000000e+00
			vertex 1.5707107e+01 2.9289323e-01 0.0000000e+00
		endloop 
	endfacet 
	facet normal 8.3146918e-01 -5.5557072e-01 0.0000000e+00
		outer loop
			vertex 1.5707107e+01 2.9289323e-01 3.1715729e+00
			vertex 1.5707107e+01 2.9289323e-01 0.0000000e+00
			vertex 1.5923880e+01 6.1731654e-01 0.0000000e+00
		endloop 
	endfacet 
	facet normal 9.8078525e-01 -1.9509007e-01 0.0000000e+00
		outer loop
			vertex 1.5923880e+01 6.1731654e-01 3.1715729e+00
			vertex 1.5923880e+01 6.1731654e-01 0.0000000e+00
			vertex 1.6000000e+01 1.0000000e+00 0.0000000e+00
		endloop 
	endfacet 
	facet normal 1.0000000e+00 0.0000000e+00 0.0000000e+00
		outer loop
			vertex 1.6000000e+01 1.0000000e+00 3.1715729e+00
			vertex 1.6000000e+01 1.0000000e+00 0.0000000e+00
			vertex 1.6000000e+01 2.0000000e+00 2.0000000e+00
		endloop 
	endfacet 
	facet normal 1.0000000e+00 0.0000000e+00 0.0000000e+00
		outer loop
			vertex 1.6000000e+01 1.0000000e+00 0.0000000e+00
			vertex 1.6000000e+01 1.1000000e+01 0.0000000e+00
			vertex 1.6000000e+01 1.0000000e+01 2.0000000e+00
		endloop 
	endfacet 
	facet normal 1.0000000e+00 0.0000000e+00 0.0000000e+00
		outer loop
			vertex 1.6000000e+01 1.0000000e+01 2.0000000e+00
			vertex 1.6000000e+01 2.0000000e+00 2.0000000e+00
			vertex 1.6000000e+01 1.0000000e+00 0.0000000e+00
		endloop 
	endfacet 
	facet normal 1.0000000e+00 0.0000000e+00 0.0000000e+00
		outer loop
			vertex 1.6000000e+01 1.1000000e+01 3.1715729e+00
			vertex 1.6000000e+01 1.0000000e+01 3.1715729e+00
			vertex 1.6000000e+01 1.0000000e+01 2.0000000e+00
		endloop 
	endfacet 
	facet normal 1.0000000e+00 -0.0000000e+00 0.0000000e+00
		outer loop
			vertex 1.6000000e+01 1.0000000e+01 2.0000000e+00
			vertex 1.6000000e+01 1.1000000e+01 0.0000000e+00
			vertex 1.6000000e+01 1.1000000e+01 3.1715729e+00
		endloop 
	endfacet 
	facet normal 1.0000000e+00 0.0000000e+00 -0.0000000e+00
		outer loop
			vertex 1.6000000e+01 2.0000000e+00 2.0000000e+00
			vertex 1.6000000e+01 2.0000000e+00 3.1715729e+00
			vertex 1.6000000e+01 1.0000000e+00 3.1715729e+00
		endloop 
	endfacet 
	facet normal 0.0000000e+00 0.0000000e+00 -1.0000000e+00
		outer loop
			vertex 1.1197618e+01 7.0609961e+00 0.0000000e+00
			vertex 1.0567368e+01 7.4960260e+00 0.0000000e+00
			vertex 1.5000000e+01 1.2000000e+01 0.0000000e+00
		endloop 
	endfacet 
	facet normal 0.0000000e+00 0.0000000e+00 -9.9999994e-01
		outer loop
			vertex 1.1197618e+01 4.9390039e+00 0.0000000e+00
			vertex 1.5382684e+01 7.6120466e-02 0.0000000e+00
			vertex 1.5000000e+01 0.0000000e+00 0.0000000e+00
		endloop 
	endfacet 
	facet normal 0.0000000e+00 0.0000000e+00 -1.0000000e+00
		outer loop
			vertex 1.5000000e+01 0.0000000e+00 0.0000000e+00
			vertex 0.0000000e+00 0.0000000e+00 0.0000000e+00
			vertex 9.8071413e+00 4.4116659e+00 0.0000000e+00
		endloop 
	endfacet 
	facet normal 0.0000000e+00 -0.0000000e+00 -1.0000000e+00
		outer loop
			vertex 1.5000000e+01 1.2000000e+01 0.0000000e+00
			vertex 1.5382684e+01 1.1923880e+01 0.0000000e+00
			vertex 1.1197618e+01 7.0609961e+00 0.0000000e+00
		endloop 
	endfacet 
	facet normal 0.0000000e+00 0.0000000e+00 -1.0000000e+00
		outer loop
			vertex 1.1197618e+01 4.9390039e+00 0.0000000e+00
			vertex 1.5707107e+01 2.9289323e-01 0.0000000e+00
			vertex 1.5382684e+01 7.6120466e-02 0.0000000e+00
		endloop 
	endfacet 
	facet normal 0.0000000e+00 0.0000000e+00 -1.0000000e+00
		outer loop
			vertex 9.8071413e+00 4.4116659e+00 0.0000000e+00
			vertex 1.0000000e+01 4.4000001e+00 0.0000000e+00
			vertex 1.5000000e+01 0.0000000e+00 0.0000000e+00
		endloop 
	endfacet 
	facet normal 0.0000000e+00 -0.0000000e+00 -9.9999994e-01
		outer loop
			vertex 1.5382684e+01 1.1923880e+01 0.0000000e+00
			vertex 1.5707107e+01 1.1707107e+01 0.0000000e+00
			vertex 1.1197618e+01 7.0609961e+00 0.0000000e+00
		endloop 
	endfacet 
	facet normal 0.0000000e+00 0.0000000e+00 -1.0000000e+00
		outer loop
			vertex 1.1197618e+01 7.0609961e+00 0.0000000e+00
			vertex 1.5923880e+01 1.1382684e+01 0.0000000e+00
			vertex 1.6000000e+01 1.1000000e+01 0.0000000e+00
		endloop 
	endfacet 
	facet normal 0.0000000e+00 -0.0000000e+00 -1.0000000e+00
		outer loop
			vertex 1.6000000e+01 1.1000000e+01 0.0000000e+00
			vertex 1.6000000e+01 1.0000000e+00 0.0000000e+00
			vertex 1.1553507e+01 5.6170950e+00 0.0000000e+00
		endloop 
	endfacet 
	facet normal 0.0000000e+00 0.0000000e+00 -1.0000000e+00
		outer loop
			vertex 1.1197618e+01 4.9390039e+00 0.0000000e+00
			vertex 1.1553507e+01 5.6170950e+00 0.0000000e+00
			vertex 1.6000000e+01 1.0000000e+00 0.0000000e+00
		endloop 
	endfacet 
	facet normal 0.0000000e+00 0.0000000e+00 -1.0000000e+00
		outer loop
			vertex 1.1197618e+01 4.9390039e+00 0.0000000e+00
			vertex 1.5923880e+01 6.1731654e-01 0.0000000e+00
			vertex 1.5707107e+01 2.9289323e-01 0.0000000e+00
		endloop 
	endfacet 
	facet normal 0.0000000e+00 0.0000000e+00 -9.9999994e-01
		outer loop
			vertex 0.0000000e+00 0.0000000e+00 0.0000000e+00
			vertex 9.0910969e+00 4.6832256e+00 0.0000000e+00
			vertex 9.8071413e+00 4.4116659e+00 0.0000000e+00
		endloop 
	endfacet 
	facet normal 0.0000000e+00 0.0000000e+00 -1.0000000e+00
		outer loop
			vertex 0.0000000e+00 1.2000000e+01 0.0000000e+00
			vertex 1.5000000e+01 1.2000000e+01 0.0000000e+00
			vertex 9.8071413e+00 7.5883341e+00 0.0000000e+00
		endloop 
	endfacet 
	facet normal 0.0000000e+00 0.0000000e+00 -1.0000000e+00
		outer loop
			vertex 1.6000000e+01 1.1000000e+01 0.0000000e+00
			vertex 1.1553507e+01 6.3829050e+00 0.0000000e+00
			vertex 1.1197618e+01 7.0609961e+00 0.0000000e+00
		endloop 
	endfacet 
	facet normal -0.0000000e+00 0.0000000e+00 -1.0000000e+00
		outer loop
			vertex 1.6000000e+01 1.0000000e+00 0.0000000e+00
			vertex 1.5923880e+01 6.1731654e-01 0.0000000e+00
			vertex 1.1197618e+01 4.9390039e+00 0.0000000e+00
		endloop 
	endfacet 
	facet normal 0.0000000e+00 0.0000000e+00 -1.0000000e+00
		outer loop
			vertex 1.0000000e+01 4.4000001e+00 0.0000000e+00
			vertex 1.0567368e+01 4.5039740e+00 0.0000000e+00
			vertex 1.5000000e+01 0.0000000e+00 0.0000000e+00
		endloop 
	endfacet 
	facet normal -0.0000000e+00 0.0000000e+00 -1.0000000e+00
		outer loop
			vertex 9.8071413e+00 7.5883341e+00 0.0000000e+00
			vertex 9.0910969e+00 7.3167744e+00 0.0000000e+00
			vertex 0.0000000e+00 1.2000000e+01 0.0000000e+00
		endloop 
	endfacet 
	facet normal 0.0000000e+00 0.0000000e+00 -1.0000000e+00
		outer loop
			vertex 1.1553507e+01 5.6170950e+00 0.0000000e+00
			vertex 1.1553507e+01 6.3829050e+00 0.0000000e+00
			vertex 1.6000000e+01 1.1000000e+01 0.0000000e+00
		endloop 
	endfacet 
	facet normal 0.0000000e+00 0.0000000e+00 -1.0000000e+00
		outer loop
			vertex 0.0000000e+00 0.0000000e+00 0.0000000e+00
			vertex 8.5832701e+00 5.2564430e+00 0.0000000e+00
			vertex 9.0910969e+00 4.6832256e+00 0.0000000e+00
		endloop 
	endfacet 
	facet normal 0.0000000e+00 0.0000000e+00 -9.9999994e-01
		outer loop
			vertex 1.5000000e+01 1.2000000e+01 0.0000000e+00
			vertex 1.0567368e+01 7.4960260e+00 0.0000000e+00
			vertex 9.8071413e+00 7.5883341e+00 0.0000000e+00
		endloop 
	endfacet 
	facet normal 0.0000000e+00 0.0000000e+00 -1.0000000e+00
		outer loop
			vertex 1.5000000e+01 0.0000000e+00 0.0000000e+00
			vertex 1.0567368e+01 4.5039740e+00 0.0000000e+00
			vertex 1.1197618e+01 4.9390039e+00 0.0000000e+00
		endloop 
	endfacet 
	facet normal 0.0000000e+00 0.0000000e+00 -1.0000000e+00
		outer loop
			vertex 0.0000000e+00 1.2000000e+01 0.0000000e+00
			vertex 8.5832701e+00 6.7435570e+00 0.0000000e+00
			vertex 8.3999996e+00 6.0000000e+00 0.0000000e+00
		endloop 
	endfacet 
	facet normal 0.0000000e+00 -0.0000000e+00 -1.0000000e+00
		outer loop
			vertex 1.5707107e+01 1.1707107e+01 0.0000000e+00
			vertex 1.5923880e+01 1.1382684e+01 0.0000000e+00
			vertex 1.1197618e+01 7.0609961e+00 0.0000000e+00
		endloop 
	endfacet 
	facet normal -0.0000000e+00 0.0000000e+00 -9.9999994e-01
		outer loop
			vertex 9.0910969e+00 7.3167744e+00 0.0000000e+00
			vertex 8.5832701e+00 6.7435570e+00 0.0000000e+00
			vertex 0.0000000e+00 1.2000000e+01 0.0000000e+00
		endloop 
	endfacet 
	facet normal 0.0000000e+00 0.0000000e+00 -1.0000000e+00
		outer loop
			vertex 0.0000000e+00 0.0000000e+00 0.0000000e+00
			vertex 8.3999996e+00 6.0000000e+00 0.0000000e+00
			vertex 8.5832701e+00 5.2564430e+00 0.0000000e+00
		endloop 
	endfacet 
	facet normal -0.0000000e+00 0.0000000e+00 -1.0000000e+00
		outer loop
			vertex 8.3999996e+00 6.0000000e+00 0.0000000e+00
			vertex 0.0000000e+00 0.0000000e+00 0.0000000e+00
			vertex 0.0000000e+00 1.2000000e+01 0.0000000e+00
		endloop 
	endfacet 
	facet normal -1.0000000e+00 0.0000000e+00 0.0000000e+00
		outer loop
			vertex 0.0000000e+00 7.3167744e+00 1.0908903e+01
			vertex 0.0000000e+00 1.1707107e+01 1.5707107e+01
			vertex 0.0000000e+00 1.1923880e+01 1.5382684e+01
		endloop 
	endfacet 
	facet normal -1.0000000e+00 0.0000000e+00 0.0000000e+00
		outer loop
			vertex 0.0000000e+00 4.6832256e+00 1.0908903e+01
			vertex 0.0000000e+00 7.6120466e-02 1.5382684e+01
			vertex 0.0000000e+00 2.9289323e-01 1.5707107e+01
		endloop 
	endfacet 
	facet normal -1.0000000e+00 0.0000000e+00 0.0000000e+00
		outer loop
			vertex 0.0000000e+00 7.3167744e+00 1.0908903e+01
			vertex 0.0000000e+00 1.1382684e+01 1.5923880e+01
			vertex 0.0000000e+00 1.1707107e+01 1.5707107e+01
		endloop 
	endfacet 
	facet normal -1.0000000e+00 0.0000000e+00 0.0000000e+00
		outer loop
			vertex 0.0000000e+00 7.3167744e+00 1.0908903e+01
			vertex 0.0000000e+00 6.7435570e+00 1.1416730e+01
			vertex 0.0000000e+00 1.1000000e+01 1.6000000e+01
		endloop 
	endfacet 
	facet normal -1.0000000e+00 0.0000000e+00 0.0000000e+00
		outer loop
			vertex 0.0000000e+00 4.6832256e+00 1.0908903e+01
			vertex 0.0000000e+00 6.1731654e-01 1.5923880e+01
			vertex 0.0000000e+00 1.0000000e+00 1.6000000e+01
		endloop 
	endfacet 
	facet normal -1.0000000e+00 0.0000000e+00 0.0000000e+00
		outer loop
			vertex 0.0000000e+00 4.6832256e+00 1.0908903e+01
			vertex 0.0000000e+00 0.0000000e+00 1.5000000e+01
			vertex 0.0000000e+00 7.6120466e-02 1.5382684e+01
		endloop 
	endfacet 
	facet normal -1.0000000e+00 0.0000000e+00 -0.0000000e+00
		outer loop
			vertex 0.0000000e+00 1.1000000e+01 1.6000000e+01
			vertex 0.0000000e+00 1.1382684e+01 1.5923880e+01
			vertex 0.0000000e+00 7.3167744e+00 1.0908903e+01
		endloop 
	endfacet 
	facet normal -9.9999994e-01 0.0000000e+00 0.0000000e+00
		outer loop
			vertex 0.0000000e+00 1.2000000e+01 0.0000000e+00
			vertex 0.0000000e+00 0.0000000e+00 0.0000000e+00
			vertex 0.0000000e+00 5.6170950e+00 8.4464931e+00
		endloop 
	endfacet 
	facet normal -9.9999994e-01 0.0000000e+00 0.0000000e+00
		outer loop
			vertex 0.0000000e+00 0.0000000e+00 1.5000000e+01
			vertex 0.0000000e+00 4.4116659e+00 1.0192859e+01
			vertex 0.0000000e+00 4.5039740e+00 9.4326324e+00
		endloop 
	endfacet 
	facet normal -9.9999994e-01 0.0000000e+00 0.0000000e+00
		outer loop
			vertex 0.0000000e+00 2.9289323e-01 1.5707107e+01
			vertex 0.0000000e+00 6.1731654e-01 1.5923880e+01
			vertex 0.0000000e+00 4.6832256e+00 1.0908903e+01
		endloop 
	endfacet 
	facet normal -1.0000000e+00 0.0000000e+00 0.0000000e+00
		outer loop
			vertex 0.0000000e+00 1.2000000e+01 1.5000000e+01
			vertex 0.0000000e+00 7.5883341e+00 1.0192859e+01
			vertex 0.0000000e+00 7.3167744e+00 1.0908903e+01
		endloop 
	endfacet 
	facet normal -1.0000000e+00 0.0000000e+00 -0.0000000e+00
		outer loop
			vertex 0.0000000e+00 1.2000000e+01 1.5000000e+01
			vertex 0.0000000e+00 1.2000000e+01 0.0000000e+00
			vertex 0.0000000e+00 7.4960260e+00 9.4326324e+00
		endloop 
	endfacet 
	facet normal -9.9999994e-01 0.0000000e+00 0.0000000e+00
		outer loop
			vertex 0.0000000e+00 0.0000000e+00 0.0000000e+00
			vertex 0.0000000e+00 4.9390039e+00 8.8023825e+00
			vertex 0.0000000e+00 5.6170950e+00 8.4464931e+00
		endloop 
	endfacet 
	facet normal -1.0000000e+00 0.0000000e+00 0.0000000e+00
		outer loop
			vertex 0.0000000e+00 0.0000000e+00 1.5000000e+01
			vertex 0.0000000e+00 4.6832256e+00 1.0908903e+01
			vertex 0.0000000e+00 4.4116659e+00 1.0192859e+01
		endloop 
	endfacet 
	facet normal -1.0000000e+00 0.0000000e+00 0.0000000e+00
		outer loop
			vertex 0.0000000e+00 1.0000000e+00 1.6000000e+01
			vertex 0.0000000e+00 6.0000000e+00 1.1600000e+01
			vertex 0.0000000e+00 5.2564430e+00 1.1416730e+01
		endloop 
	endfacet 
	facet normal -1.0000000e+00 0.0000000e+00 0.0000000e+00
		outer loop
			vertex 0.0000000e+00 7.4960260e+00 9.4326324e+00
			vertex 0.0000000e+00 7.5883341e+00 1.0192859e+01
			vertex 0.0000000e+00 1.2000000e+01 1.5000000e+01
		endloop 
	endfacet 
	facet normal -9.9999994e-01 0.0000000e+00 0.0000000e+00
		outer loop
			vertex 0.0000000e+00 1.2000000e+01 0.0000000e+00
			vertex 0.0000000e+00 6.3829050e+00 8.4464931e+00
			vertex 0.0000000e+00 7.0609961e+00 8.8023825e+00
		endloop 
	endfacet 
	facet normal -1.0000000e+00 0.0000000e+00 0.0000000e+00
		outer loop
			vertex 0.0000000e+00 0.0000000e+00 0.0000000e+00
			vertex 0.0000000e+00 4.5039740e+00 9.4326324e+00
			vertex 0.0000000e+00 4.9390039e+00 8.8023825e+00
		endloop 
	endfacet 
	facet normal -1.0000000e+00 0.0000000e+00 0.0000000e+00
		outer loop
			vertex 0.0000000e+00 1.0000000e+00 1.6000000e+01
			vertex 0.0000000e+00 5.2564430e+00 1.1416730e+01
			vertex 0.0000000e+00 4.6832256e+00 1.0908903e+01
		endloop 
	endfacet 
	facet normal -1.0000000e+00 0.0000000e+00 0.0000000e+00
		outer loop
			vertex 0.0000000e+00 7.0609961e+00 8.8023825e+00
			vertex 0.0000000e+00 7.4960260e+00 9.4326324e+00
			vertex 0.0000000e+00 1.2000000e+01 0.0000000e+00
		endloop 
	endfacet 
	facet normal -1.0000000e+00 -0.0000000e+00 0.0000000e+00
		outer loop
			vertex 0.0000000e+00 4.5039740e+00 9.4326324e+00
			vertex 0.0000000e+00 0.0000000e+00 0.0000000e+00
			vertex 0.0000000e+00 0.0000000e+00 1.5000000e+01
		endloop 
	endfacet 
	facet normal -1.0000000e+00 0.0000000e+00 0.0000000e+00
		outer loop
			vertex 0.0000000e+00 1.1000000e+01 1.6000000e+01
			vertex 0.0000000e+00 6.7435570e+00 1.1416730e+01
			vertex 0.0000000e+00 6.0000000e+00 1.1600000e+01
		endloop 
	endfacet 
	facet normal -1.0000000e+00 0.0000000e+00 0.0000000e+00
		outer loop
			vertex 0.0000000e+00 5.6170950e+00 8.4464931e+00
			vertex 0.0000000e+00 6.3829050e+00 8.4464931e+00
			vertex 0.0000000e+00 1.2000000e+01 0.0000000e+00
		endloop 
	endfacet 
	facet normal -1.0000000e+00 0.0000000e+00 -0.0000000e+00
		outer loop
			vertex 0.0000000e+00 1.1923880e+01 1.5382684e+01
			vertex 0.0000000e+00 1.2000000e+01 1.5000000e+01
			vertex 0.0000000e+00 7.3167744e+00 1.0908903e+01
		endloop 
	endfacet 
	facet normal -1.0000000e+00 0.0000000e+00 0.0000000e+00
		outer loop
			vertex 0.0000000e+00 6.0000000e+00 1.1600000e+01
			vertex 0.0000000e+00 1.0000000e+00 1.6000000e+01
			vertex 0.0000000e+00 1.1000000e+01 1.6000000e+01
		endloop 
	endfacet 
	facet normal 0.0000000e+00 0.0000000e+00 1.0000000e+00
		outer loop
			vertex 3.1715729e+00 1.1000000e+01 1.6000000e+01
			vertex 0.0000000e+00 1.1000000e+01 1.6000000e+01
			vertex 2.0000000e+00 1.0000000e+01 1.6000000e+01
		endloop 
	endfacet 
	facet normal 0.0000000e+00 0.0000000e+00 1.0000000e+00
		outer loop
			vertex 0.0000000e+00 1.1000000e+01 1.6000000e+01
			vertex 0.0000000e+00 1.0000000e+00 1.6000000e+01
			vertex 2.0000000e+00 2.0000000e+00 1.6000000e+01
		endloop 
	endfacet 
	facet normal 0.0000000e+00 -0.0000000e+00 1.0000000e+00
		outer loop
			vertex 2.0000000e+00 2.0000000e+00 1.6000000e+01
			vertex 2.0000000e+00 1.0000000e+01 1.6000000e+01
			vertex 0.0000000e+00 1.1000000e+01 1.6000000e+01
		endloop 
	endfacet 
	facet normal 0.0000000e+00 -0.0000000e+00 1.0000000e+00
		outer loop
			vertex 3.1715729e+00 1.0000000e+00 1.6000000e+01
			vertex 3.1715729e+00 2.0000000e+00 1.6000000e+01
			vertex 2.0000000e+00 2.0000000e+00 1.6000000e+01
		endloop 
	endfacet 
	facet normal 0.0000000e+00 0.0000000e+00 1.0000000e+00
		outer loop
			vertex 2.0000000e+00 2.0000000e+00 1.6000000e+01
			vertex 0.0000000e+00 1.0000000e+00 1.6000000e+01
			vertex 3.1715729e+00 1.0000000e+00 1.6000000e+01
		endloop 
	endfacet 
	facet normal 0.0000000e+00 0.0000000e+00 1.0000000e+00
		outer loop
			vertex 2.0000000e+00 1.0000000e+01 1.6000000e+01
			vertex 3.1715729e+00 1.0000000e+01 1.6000000e+01
			vertex 3.1715729e+00 1.1000000e+01 1.6000000e+01
		endloop 
	endfacet 
	facet normal -0.0000000e+00 -1.0000000e+00 0.0000000e+00
		outer loop
			vertex 4.5857863e+00 1.0000000e+01 1.5414213e+01
			vertex 3.9369397e+00 1.0000000e+01 1.5847759e+01
			vertex 2.0000000e+00 1.0000000e+01 4.0000000e+00
		endloop 
	endfacet 
	facet normal 0.0000000e+00 -1.0000000e+00 0.0000000e+00
		outer loop
			vertex 4.0000000e+00 1.0000000e+01 2.0000000e+00
			vertex 1.6000000e+01 1.0000000e+01 3.1715729e+00
			vertex 1.5847759e+01 1.0000000e+01 3.9369397e+00
		endloop 
	endfacet 
	facet normal 0.0000000e+00 -9.9999994e-01 0.0000000e+00
		outer loop
			vertex 2.0000000e+00 1.0000000e+01 4.0000000e+00
			vertex 2.5857863e+00 1.0000000e+01 2.5857863e+00
			vertex 3.2346332e+00 1.0000000e+01 2.1522410e+00
		endloop 
	endfacet 
	facet normal 0.0000000e+00 -1.0000000e+00 0.0000000e+00
		outer loop
			vertex 2.0000000e+00 1.0000000e+01 4.0000000e+00
			vertex 4.0000000e+00 1.0000000e+01 2.0000000e+00
			vertex 4.5857863e+00 1.0000000e+01 1.5414213e+01
		endloop 
	endfacet 
	facet normal -0.0000000e+00 -1.0000000e+00 0.0000000e+00
		outer loop
			vertex 1.5847759e+01 1.0000000e+01 3.9369397e+00
			vertex 1.5414213e+01 1.0000000e+01 4.5857863e+00
			vertex 4.0000000e+00 1.0000000e+01 2.0000000e+00
		endloop 
	endfacet 
	facet normal 0.0000000e+00 -1.0000000e+00 0.0000000e+00
		outer loop
			vertex 2.0000000e+00 1.0000000e+01 4.0000000e+00
			vertex 2.1522410e+00 1.0000000e+01 3.2346332e+00
			vertex 2.5857863e+00 1.0000000e+01 2.5857863e+00
		endloop 
	endfacet 
	facet normal -0.0000000e+00 -1.0000000e+00 0.0000000e+00
		outer loop
			vertex 3.9369397e+00 1.0000000e+01 1.5847759e+01
			vertex 3.1715729e+00 1.0000000e+01 1.6000000e+01
			vertex 2.0000000e+00 1.0000000e+01 4.0000000e+00
		endloop 
	endfacet 
	facet normal 0.0000000e+00 -1.0000000e+00 0.0000000e+00
		outer loop
			vertex 4.0000000e+00 1.0000000e+01 2.0000000e+00
			vertex 1.6000000e+01 1.0000000e+01 2.0000000e+00
			vertex 1.6000000e+01 1.0000000e+01 3.1715729e+00
		endloop 
	endfacet 
	facet normal -0.0000000e+00 -1.0000000e+00 0.0000000e+00
		outer loop
			vertex 3.1715729e+00 1.0000000e+01 1.6000000e+01
			vertex 2.0000000e+00 1.0000000e+01 1.6000000e+01
			vertex 2.0000000e+00 1.0000000e+01 4.0000000e+00
		endloop 
	endfacet 
	facet normal 0.0000000e+00 -1.0000000e+00 0.0000000e+00
		outer loop
			vertex 3.2346332e+00 1.0000000e+01 2.1522410e+00
			vertex 4.0000000e+00 1.0000000e+01 2.0000000e+00
			vertex 2.0000000e+00 1.0000000e+01 4.0000000e+00
		endloop 
	endfacet 
	facet normal -0.0000000e+00 -1.0000000e+00 0.0000000e+00
		outer loop
			vertex 1.5414213e+01 1.0000000e+01 4.5857863e+00
			vertex 4.5857863e+00 1.0000000e+01 1.5414213e+01
			vertex 4.0000000e+00 1.0000000e+01 2.0000000e+00
		endloop 
	endfacet 
	facet normal 5.5557078e-01 -0.0000000e+00 8.3146924e-01
		outer loop
			vertex 4.5857863e+00 1.0000000e+01 1.5414213e+01
			vertex 4.5857863e+00 1.1000000e+01 1.5414213e+01
			vertex 3.9369397e+00 1.1000000e+01 1.5847759e+01
		endloop 
	endfacet 
	facet normal 1.9509012e-01 -0.0000000e+00 9.8078531e-01
		outer loop
			vertex 3.9369397e+00 1.0000000e+01 1.5847759e+01
			vertex 3.9369397e+00 1.1000000e+01 1.5847759e+01
			vertex 3.1715729e+00 1.1000000e+01 1.6000000e+01
		endloop 
	endfacet 
	facet normal 1.9509012e-01 0.0000000e+00 9.8078531e-01
		outer loop
			vertex 3.1715729e+00 1.1000000e+01 1.6000000e+01
			vertex 3.1715729e+00 1.0000000e+01 1.6000000e+01
			vertex 3.9369397e+00 1.0000000e+01 1.5847759e+01
		endloop 
	endfacet 
	facet normal 5.5557078e-01 0.0000000e+00 8.3146924e-01
		outer loop
			vertex 3.9369397e+00 1.1000000e+01 1.5847759e+01
			vertex 3.9369397e+00 1.0000000e+01 1.5847759e+01
			vertex 4.5857863e+00 1.0000000e+01 1.5414213e+01
		endloop 
	endfacet 
	facet normal -0.0000000e+00 1.9508994e-01 9.8078537e-01
		outer loop
			vertex 0.0000000e+00 1.1000000e+01 1.6000000e+01
			vertex 3.1715729e+00 1.1000000e+01 1.6000000e+01
			vertex 3.1715729e+00 1.1382684e+01 1.5923880e+01
		endloop 
	endfacet 
	facet normal -0.0000000e+00 5.5557138e-01 8.3146888e-01
		outer loop
			vertex 0.0000000e+00 1.1382684e+01 1.5923880e+01
			vertex 3.1715729e+00 1.1382684e+01 1.5923880e+01
			vertex 3.1715729e+00 1.1707107e+01 1.5707107e+01
		endloop 
	endfacet 
	facet normal -0.0000000e+00 8.3146888e-01 5.5557138e-01
		outer loop
			vertex 0.0000000e+00 1.1707107e+01 1.5707107e+01
			vertex 3.1715729e+00 1.1707107e+01 1.5707107e+01
			vertex 3.1715729e+00 1.1923880e+01 1.5382684e+01
		endloop 
	endfacet 
	facet normal -0.0000000e+00 9.8078537e-01 1.9508994e-01
		outer loop
			vertex 0.0000000e+00 1.1923880e+01 1.5382684e+01
			vertex 3.1715729e+00 1.1923880e+01 1.5382684e+01
			vertex 3.1715729e+00 1.2000000e+01 1.5000000e+01
		endloop 
	endfacet 
	facet normal 0.0000000e+00 9.8078537e-01 1.9508994e-01
		outer loop
			vertex 3.1715729e+00 1.2000000e+01 1.5000000e+01
			vertex 0.0000000e+00 1.2000000e+01 1.5000000e+01
			vertex 0.0000000e+00 1.1923880e+01 1.5382684e+01
		endloop 
	endfacet 
	facet normal 0.0000000e+00 8.3146888e-01 5.5557138e-01
		outer loop
			vertex 3.1715729e+00 1.1923880e+01 1.5382684e+01
			vertex 0.0000000e+00 1.1923880e+01 1.5382684e+01
			vertex 0.0000000e+00 1.1707107e+01 1.5707107e+01
		endloop 
	endfacet 
	facet normal 0.0000000e+00 5.5557138e-01 8.3146888e-01
		outer loop
			vertex 3.1715729e+00 1.1707107e+01 1.5707107e+01
			vertex 0.0000000e+00 1.1707107e+01 1.5707107e+01
			vertex 0.0000000e+00 1.1382684e+01 1.5923880e+01
		endloop 
	endfacet 
	facet normal 0.0000000e+00 1.9508994e-01 9.8078537e-01
		outer loop
			vertex 3.1715729e+00 1.1382684e+01 1.5923880e+01
			vertex 0.0000000e+00 1.1382684e+01 1.5923880e+01
			vertex 0.0000000e+00 1.1000000e+01 1.6000000e+01
		endloop 
	endfacet 
	facet normal 7.0710677e-01 0.0000000e+00 7.0710677e-01
		outer loop
			vertex 4.5857863e+00 1.1000000e+01 1.5414213e+01
			vertex 4.5857863e+00 1.0000000e+01 1.5414213e+01
			vertex 1.5414213e+01 1.0000000e+01 4.5857863e+00
		endloop 
	endfacet 
	facet normal 7.0710677e-01 -0.0000000e+00 7.0710677e-01
		outer loop
			vertex 1.5414213e+01 1.0000000e+01 4.5857863e+00
			vertex 1.5414213e+01 1.1000000e+01 4.5857863e+00
			vertex 4.5857863e+00 1.1000000e+01 1.5414213e+01
		endloop 
	endfacet 
	facet normal 1.9148026e-01 1.9148009e-01 9.6263736e-01
		outer loop
			vertex 3.1715729e+00 1.1382684e+01 1.5923880e+01
			vertex 3.1715729e+00 1.1000000e+01 1.6000000e+01
			vertex 3.9369397e+00 1.1000000e+01 1.5847759e+01
		endloop 
	endfacet 
	facet normal 5.4529083e-01 1.9147961e-01 8.1608427e-01
		outer loop
			vertex 3.9078097e+00 1.1382684e+01 1.5777433e+01
			vertex 3.9369397e+00 1.1000000e+01 1.5847759e+01
			vertex 4.5857863e+00 1.1000000e+01 1.5414213e+01
		endloop 
	endfacet 
	facet normal 1.6317239e-01 5.4812533e-01 8.2032520e-01
		outer loop
			vertex 3.1715729e+00 1.1707107e+01 1.5707107e+01
			vertex 3.1715729e+00 1.1382684e+01 1.5923880e+01
			vertex 3.9078097e+00 1.1382684e+01 1.5777433e+01
		endloop 
	endfacet 
	facet normal 4.6467751e-01 5.4812568e-01 6.9543725e-01
		outer loop
			vertex 3.8248544e+00 1.1707107e+01 1.5577161e+01
			vertex 3.9078097e+00 1.1382684e+01 1.5777433e+01
			vertex 4.5319610e+00 1.1382684e+01 1.5360388e+01
		endloop 
	endfacet 
	facet normal 1.0984132e-01 8.2643783e-01 5.5220968e-01
		outer loop
			vertex 3.1715729e+00 1.1923880e+01 1.5382684e+01
			vertex 3.1715729e+00 1.1707107e+01 1.5707107e+01
			vertex 3.8248544e+00 1.1707107e+01 1.5577161e+01
		endloop 
	endfacet 
	facet normal 3.1280163e-01 8.2643777e-01 4.6814078e-01
		outer loop
			vertex 3.7007029e+00 1.1923880e+01 1.5277433e+01
			vertex 3.8248544e+00 1.1707107e+01 1.5577161e+01
			vertex 4.3786798e+00 1.1707107e+01 1.5207107e+01
		endloop 
	endfacet 
	facet normal 3.8776565e-02 9.8004770e-01 1.9494322e-01
		outer loop
			vertex 3.1715729e+00 1.2000000e+01 1.5000000e+01
			vertex 3.1715729e+00 1.1923880e+01 1.5382684e+01
			vertex 3.7007029e+00 1.1923880e+01 1.5277433e+01
		endloop 
	endfacet 
	facet normal 1.1042654e-01 9.8004776e-01 1.6526483e-01
		outer loop
			vertex 3.5542562e+00 1.2000000e+01 1.4923880e+01
			vertex 3.7007029e+00 1.1923880e+01 1.5277433e+01
			vertex 4.1492777e+00 1.1923880e+01 1.4977705e+01
		endloop 
	endfacet 
	facet normal 1.1042652e-01 9.8004770e-01 1.6526486e-01
		outer loop
			vertex 4.1492777e+00 1.1923880e+01 1.4977705e+01
			vertex 3.8786798e+00 1.2000000e+01 1.4707107e+01
			vertex 3.5542562e+00 1.2000000e+01 1.4923880e+01
		endloop 
	endfacet 
	facet normal 3.8776577e-02 9.8004776e-01 1.9494322e-01
		outer loop
			vertex 3.7007029e+00 1.1923880e+01 1.5277433e+01
			vertex 3.5542562e+00 1.2000000e+01 1.4923880e+01
			vertex 3.1715729e+00 1.2000000e+01 1.5000000e+01
		endloop 
	endfacet 
	facet normal 3.1280169e-01 8.2643807e-01 4.6814033e-01
		outer loop
			vertex 4.3786798e+00 1.1707107e+01 1.5207107e+01
			vertex 4.1492777e+00 1.1923880e+01 1.4977705e+01
			vertex 3.7007029e+00 1.1923880e+01 1.5277433e+01
		endloop 
	endfacet 
	facet normal 1.0984123e-01 8.2643765e-01 5.5220985e-01
		outer loop
			vertex 3.8248544e+00 1.1707107e+01 1.5577161e+01
			vertex 3.7007029e+00 1.1923880e+01 1.5277433e+01
			vertex 3.1715729e+00 1.1923880e+01 1.5382684e+01
		endloop 
	endfacet 
	facet normal 4.6467721e-01 5.4812413e-01 6.9543874e-01
		outer loop
			vertex 4.5319610e+00 1.1382684e+01 1.5360388e+01
			vertex 4.3786798e+00 1.1707107e+01 1.5207107e+01
			vertex 3.8248544e+00 1.1707107e+01 1.5577161e+01
		endloop 
	endfacet 
	facet normal 1.6317271e-01 5.4812598e-01 8.2032472e-01
		outer loop
			vertex 3.9078097e+00 1.1382684e+01 1.5777433e+01
			vertex 3.8248544e+00 1.1707107e+01 1.5577161e+01
			vertex 3.1715729e+00 1.1707107e+01 1.5707107e+01
		endloop 
	endfacet 
	facet normal 5.4529119e-01 1.9148062e-01 8.1608385e-01
		outer loop
			vertex 4.5857863e+00 1.1000000e+01 1.5414213e+01
			vertex 4.5319610e+00 1.1382684e+01 1.5360388e+01
			vertex 3.9078097e+00 1.1382684e+01 1.5777433e+01
		endloop 
	endfacet 
	facet normal 1.9148000e-01 1.9147953e-01 9.6263748e-01
		outer loop
			vertex 3.9369397e+00 1.1000000e+01 1.5847759e+01
			vertex 3.9078097e+00 1.1382684e+01 1.5777433e+01
			vertex 3.1715729e+00 1.1382684e+01 1.5923880e+01
		endloop 
	endfacet 
	facet normal 0.0000000e+00 1.0000000e+00 0.0000000e+00
		outer loop
			vertex 0.0000000e+00 1.2000000e+01 0.0000000e+00
			vertex 1.4707107e+01 1.2000000e+01 3.8786798e+00
			vertex 1.4923880e+01 1.2000000e+01 3.5542562e+00
		endloop 
	endfacet 
	facet normal 0.0000000e+00 1.0000000e+00 0.0000000e+00
		outer loop
			vertex 1.4923880e+01 1.2000000e+01 3.5542562e+00
			vertex 1.5000000e+01 1.2000000e+01 3.1715729e+00
			vertex 0.0000000e+00 1.2000000e+01 0.0000000e+00
		endloop 
	endfacet 
	facet normal 0.0000000e+00 1.0000000e+00 0.0000000e+00
		outer loop
			vertex 0.0000000e+00 1.2000000e+01 0.0000000e+00
			vertex 3.1715729e+00 1.2000000e+01 1.5000000e+01
			vertex 3.5542562e+00 1.2000000e+01 1.4923880e+01
		endloop 
	endfacet 
	facet normal 0.0000000e+00 1.0000000e+00 0.0000000e+00
		outer loop
			vertex 0.0000000e+00 1.2000000e+01 0.0000000e+00
			vertex 3.8786798e+00 1.2000000e+01 1.4707107e+01
			vertex 1.4707107e+01 1.2000000e+01 3.8786798e+00
		endloop 
	endfacet 
	facet normal 0.0000000e+00 1.0000000e+00 0.0000000e+00
		outer loop
			vertex 0.0000000e+00 1.2000000e+01 0.0000000e+00
			vertex 0.0000000e+00 1.2000000e+01 1.5000000e+01
			vertex 3.1715729e+00 1.2000000e+01 1.5000000e+01
		endloop 
	endfacet 
	facet normal 0.0000000e+00 1.0000000e+00 0.0000000e+00
		outer loop
			vertex 3.5542562e+00 1.2000000e+01 1.4923880e+01
			vertex 3.8786798e+00 1.2000000e+01 1.4707107e+01
			vertex 0.0000000e+00 1.2000000e+01 0.0000000e+00
		endloop 
	endfacet 
	facet normal 0.0000000e+00 1.0000000e+00 0.0000000e+00
		outer loop
			vertex 1.5000000e+01 1.2000000e+01 3.1715729e+00
			vertex 1.5000000e+01 1.2000000e+01 0.0000000e+00
			vertex 0.0000000e+00 1.2000000e+01 0.0000000e+00
		endloop 
	endfacet 
	facet normal 9.8078531e-01 -0.0000000e+00 1.9509012e-01
		outer loop
			vertex 1.6000000e+01 1.0000000e+01 3.1715729e+00
			vertex 1.6000000e+01 1.1000000e+01 3.1715729e+00
			vertex 1.5847759e+01 1.1000000e+01 3.9369397e+00
		endloop 
	endfacet 
	facet normal 8.3146924e-01 -0.0000000e+00 5.5557078e-01
		outer loop
			vertex 1.5847759e+01 1.0000000e+01 3.9369397e+00
			vertex 1.5847759e+01 1.1000000e+01 3.9369397e+00
			vertex 1.5414213e+01 1.1000000e+01 4.5857863e+00
		endloop 
	endfacet 
	facet normal 8.3146924e-01 0.0000000e+00 5.5557078e-01
		outer loop
			vertex 1.5414213e+01 1.1000000e+01 4.5857863e+00
			vertex 1.5414213e+01 1.0000000e+01 4.5857863e+00
			vertex 1.5847759e+01 1.0000000e+01 3.9369397e+00
		endloop 
	endfacet 
	facet normal 9.8078531e-01 0.0000000e+00 1.9509012e-01
		outer loop
			vertex 1.5847759e+01 1.1000000e+01 3.9369397e+00
			vertex 1.5847759e+01 1.0000000e+01 3.9369397e+00
			vertex 1.6000000e+01 1.0000000e+01 3.1715729e+00
		endloop 
	endfacet 
	facet normal 6.9351995e-01 1.9509032e-01 6.9351995e-01
		outer loop
			vertex 4.5857863e+00 1.1000000e+01 1.5414213e+01
			vertex 1.5414213e+01 1.1000000e+01 4.5857863e+00
			vertex 1.5360388e+01 1.1382684e+01 4.5319610e+00
		endloop 
	endfacet 
	facet normal 5.8793789e-01 5.5557001e-01 5.8793789e-01
		outer loop
			vertex 4.5319610e+00 1.1382684e+01 1.5360388e+01
			vertex 1.5360388e+01 1.1382684e+01 4.5319610e+00
			vertex 1.5207107e+01 1.1707107e+01 4.3786798e+00
		endloop 
	endfacet 
	facet normal 3.9284825e-01 8.3146894e-01 3.9284825e-01
		outer loop
			vertex 4.3786798e+00 1.1707107e+01 1.5207107e+01
			vertex 1.5207107e+01 1.1707107e+01 4.3786798e+00
			vertex 1.4977705e+01 1.1923880e+01 4.1492777e+00
		endloop 
	endfacet 
	facet normal 1.3794945e-01 9.8078525e-01 1.3794945e-01
		outer loop
			vertex 4.1492777e+00 1.1923880e+01 1.4977705e+01
			vertex 1.4977705e+01 1.1923880e+01 4.1492777e+00
			vertex 1.4707107e+01 1.2000000e+01 3.8786798e+00
		endloop 
	endfacet 
	facet normal 1.3794944e-01 9.8078525e-01 1.3794944e-01
		outer loop
			vertex 1.4707107e+01 1.2000000e+01 3.8786798e+00
			vertex 3.8786798e+00 1.2000000e+01 1.4707107e+01
			vertex 4.1492777e+00 1.1923880e+01 1.4977705e+01
		endloop 
	endfacet 
	facet normal 3.9284825e-01 8.3146888e-01 3.9284825e-01
		outer loop
			vertex 1.4977705e+01 1.1923880e+01 4.1492777e+00
			vertex 4.1492777e+00 1.1923880e+01 1.4977705e+01
			vertex 4.3786798e+00 1.1707107e+01 1.5207107e+01
		endloop 
	endfacet 
	facet normal 5.8793789e-01 5.5557001e-01 5.8793789e-01
		outer loop
			vertex 1.5207107e+01 1.1707107e+01 4.3786798e+00
			vertex 4.3786798e+00 1.1707107e+01 1.5207107e+01
			vertex 4.5319610e+00 1.1382684e+01 1.5360388e+01
		endloop 
	endfacet 
	facet normal 6.9351995e-01 1.9509032e-01 6.9351995e-01
		outer loop
			vertex 1.5360388e+01 1.1382684e+01 4.5319610e+00
			vertex 4.5319610e+00 1.1382684e+01 1.5360388e+01
			vertex 4.5857863e+00 1.1000000e+01 1.5414213e+01
		endloop 
	endfacet 
	facet normal 8.1608409e-01 1.9148059e-01 5.4529071e-01
		outer loop
			vertex 1.5360388e+01 1.1382684e+01 4.5319610e+00
			vertex 1.5414213e+01 1.1000000e+01 4.5857863e+00
			vertex 1.5847759e+01 1.1000000e+01 3.9369397e+00
		endloop 
	endfacet 
	facet normal 9.6263742e-01 1.9147955e-01 1.9148028e-01
		outer loop
			vertex 1.5777433e+01 1.1382684e+01 3.9078097e+00
			vertex 1.5847759e+01 1.1000000e+01 3.9369397e+00
			vertex 1.6000000e+01 1.1000000e+01 3.1715729e+00
		endloop 
	endfacet 
	facet normal 6.9543809e-01 5.4812419e-01 4.6467811e-01
		outer loop
			vertex 1.5207107e+01 1.1707107e+01 4.3786798e+00
			vertex 1.5360388e+01 1.1382684e+01 4.5319610e+00
			vertex 1.5777433e+01 1.1382684e+01 3.9078097e+00
		endloop 
	endfacet 
	facet normal 8.2032478e-01 5.4812592e-01 1.6317233e-01
		outer loop
			vertex 1.5577161e+01 1.1707107e+01 3.8248544e+00
			vertex 1.5777433e+01 1.1382684e+01 3.9078097e+00
			vertex 1.5923880e+01 1.1382684e+01 3.1715729e+00
		endloop 
	endfacet 
	facet normal 4.6814045e-01 8.2643789e-01 3.1280139e-01
		outer loop
			vertex 1.4977705e+01 1.1923880e+01 4.1492777e+00
			vertex 1.5207107e+01 1.1707107e+01 4.3786798e+00
			vertex 1.5577161e+01 1.1707107e+01 3.8248544e+00
		endloop 
	endfacet 
	facet normal 5.5220979e-01 8.2643759e-01 1.0984135e-01
		outer loop
			vertex 1.5277433e+01 1.1923880e+01 3.7007029e+00
			vertex 1.5577161e+01 1.1707107e+01 3.8248544e+00
			vertex 1.5707107e+01 1.1707107e+01 3.1715729e+00
		endloop 
	endfacet 
	facet normal 1.6526484e-01 9.8004770e-01 1.1042655e-01
		outer loop
			vertex 1.4707107e+01 1.2000000e+01 3.8786798e+00
			vertex 1.4977705e+01 1.1923880e+01 4.1492777e+00
			vertex 1.5277433e+01 1.1923880e+01 3.7007029e+00
		endloop 
	endfacet 
	facet normal 1.9494319e-01 9.8004770e-01 3.8776562e-02
		outer loop
			vertex 1.4923880e+01 1.2000000e+01 3.5542562e+00
			vertex 1.5277433e+01 1.1923880e+01 3.7007029e+00
			vertex 1.5382684e+01 1.1923880e+01 3.1715729e+00
		endloop 
	endfacet 
	facet normal 1.9494322e-01 9.8004776e-01 3.8776580e-02
		outer loop
			vertex 1.5382684e+01 1.1923880e+01 3.1715729e+00
			vertex 1.5000000e+01 1.2000000e+01 3.1715729e+00
			vertex 1.4923880e+01 1.2000000e+01 3.5542562e+00
		endloop 
	endfacet 
	facet normal 1.6526483e-01 9.8004770e-01 1.1042649e-01
		outer loop
			vertex 1.5277433e+01 1.1923880e+01 3.7007029e+00
			vertex 1.4923880e+01 1.2000000e+01 3.5542562e+00
			vertex 1.4707107e+01 1.2000000e+01 3.8786798e+00
		endloop 
	endfacet 
	facet normal 5.5220968e-01 8.2643783e-01 1.0984121e-01
		outer loop
			vertex 1.5707107e+01 1.1707107e+01 3.1715729e+00
			vertex 1.5382684e+01 1.1923880e+01 3.1715729e+00
			vertex 1.5277433e+01 1.1923880e+01 3.7007029e+00
		endloop 
	endfacet 
	facet normal 4.6814069e-01 8.2643777e-01 3.1280196e-01
		outer loop
			vertex 1.5577161e+01 1.1707107e+01 3.8248544e+00
			vertex 1.5277433e+01 1.1923880e+01 3.7007029e+00
			vertex 1.4977705e+01 1.1923880e+01 4.1492777e+00
		endloop 
	endfacet 
	facet normal 8.2032514e-01 5.4812527e-01 1.6317283e-01
		outer loop
			vertex 1.5923880e+01 1.1382684e+01 3.1715729e+00
			vertex 1.5707107e+01 1.1707107e+01 3.1715729e+00
			vertex 1.5577161e+01 1.1707107e+01 3.8248544e+00
		endloop 
	endfacet 
	facet normal 6.9543779e-01 5.4812580e-01 4.6467662e-01
		outer loop
			vertex 1.5777433e+01 1.1382684e+01 3.9078097e+00
			vertex 1.5577161e+01 1.1707107e+01 3.8248544e+00
			vertex 1.5207107e+01 1.1707107e+01 4.3786798e+00
		endloop 
	endfacet 
	facet normal 9.6263736e-01 1.9148007e-01 1.9147997e-01
		outer loop
			vertex 1.6000000e+01 1.1000000e+01 3.1715729e+00
			vertex 1.5923880e+01 1.1382684e+01 3.1715729e+00
			vertex 1.5777433e+01 1.1382684e+01 3.9078097e+00
		endloop 
	endfacet 
	facet normal 8.1608397e-01 1.9147959e-01 5.4529130e-01
		outer loop
			vertex 1.5847759e+01 1.1000000e+01 3.9369397e+00
			vertex 1.5777433e+01 1.1382684e+01 3.9078097e+00
			vertex 1.5360388e+01 1.1382684e+01 4.5319610e+00
		endloop 
	endfacet 
	facet normal 9.8078537e-01 1.9508994e-01 0.0000000e+00
		outer loop
			vertex 1.6000000e+01 1.1000000e+01 3.1715729e+00
			vertex 1.6000000e+01 1.1000000e+01 0.0000000e+00
			vertex 1.5923880e+01 1.1382684e+01 0.0000000e+00
		endloop 
	endfacet 
	facet normal 8.3146888e-01 5.5557138e-01 0.0000000e+00
		outer loop
			vertex 1.5923880e+01 1.1382684e+01 3.1715729e+00
			vertex 1.5923880e+01 1.1382684e+01 0.0000000e+00
			vertex 1.5707107e+01 1.1707107e+01 0.0000000e+00
		endloop 
	endfacet 
	facet normal 5.5557138e-01 8.3146888e-01 0.0000000e+00
		outer loop
			vertex 1.5707107e+01 1.1707107e+01 3.1715729e+00
			vertex 1.5707107e+01 1.1707107e+01 0.0000000e+00
			vertex 1.5382684e+01 1.1923880e+01 0.0000000e+00
		endloop 
	endfacet 
	facet normal 1.9508994e-01 9.8078537e-01 0.0000000e+00
		outer loop
			vertex 1.5382684e+01 1.1923880e+01 3.1715729e+00
			vertex 1.5382684e+01 1.1923880e+01 0.0000000e+00
			vertex 1.5000000e+01 1.2000000e+01 0.0000000e+00
		endloop 
	endfacet 
	facet normal 1.9508994e-01 9.8078537e-01 -0.0000000e+00
		outer loop
			vertex 1.5000000e+01 1.2000000e+01 0.0000000e+00
			vertex 1.5000000e+01 1.2000000e+01 3.1715729e+00
			vertex 1.5382684e+01 1.1923880e+01 3.1715729e+00
		endloop 
	endfacet 
	facet normal 5.5557138e-01 8.3146888e-01 -0.0000000e+00
		outer loop
			vertex 1.5382684e+01 1.1923880e+01 0.0000000e+00
			vertex 1.5382684e+01 1.1923880e+01 3.1715729e+00
			vertex 1.5707107e+01 1.1707107e+01 3.1715729e+00
		endloop 
	endfacet 
	facet normal 8.3146888e-01 5.5557138e-01 -0.0000000e+00
		outer loop
			vertex 1.5707107e+01 1.1707107e+01 0.0000000e+00
			vertex 1.5707107e+01 1.1707107e+01 3.1715729e+00
			vertex 1.5923880e+01 1.1382684e+01 3.1715729e+00
		endloop 
	endfacet 
	facet normal 9.8078537e-01 1.9508994e-01 -0.0000000e+00
		outer loop
			vertex 1.5923880e+01 1.1382684e+01 0.0000000e+00
			vertex 1.5923880e+01 1.1382684e+01 3.1715729e+00
			vertex 1.6000000e+01 1.1000000e+01 3.1715729e+00
		endloop 
	endfacet 
endsolid 
